<svg width="628" height="717" viewBox="0 0 628 717" fill="none" xmlns="http://www.w3.org/2000/svg">
<mask id="mask0_6_5" style="mask-type:alpha" maskUnits="userSpaceOnUse" x="31" y="31" width="566" height="656">
<path d="M597 686L31.0001 686L31 31L597 31L597 686Z" fill="#A66262"/>
</mask>
<g mask="url(#mask0_6_5)">
<g filter="url(#filter0_d_6_5)">
<path fill-rule="evenodd" clip-rule="evenodd" d="M464.247 72.8485C461.649 77.9672 461.747 83.7042 464.511 88.2729L469.665 96.7946L469.665 101.914C469.666 102.663 469.993 103.353 470.575 103.832C471.156 104.311 471.945 104.539 472.767 104.466L474.228 104.337L484.246 120.9L453.106 123.64C451.779 123.757 450.505 123.391 449.565 122.622C448.626 121.852 448.097 120.742 448.096 119.536L448.096 36.416C448.097 35.2099 448.626 34.0072 449.565 33.0723C450.505 32.1374 451.779 31.547 453.106 31.4311L486.771 28.4693L477.503 46.7302L472.767 47.1469C471.945 47.2187 471.156 47.5854 470.575 48.1663C469.993 48.7473 469.666 49.4948 469.665 50.2446L469.665 62.1733L464.247 72.8485ZM485.817 45.9989L477.503 46.7302L469.665 62.1733L469.665 96.7946L474.228 104.337L483.988 103.479L494.202 120.024L484.246 120.9L494.264 137.464L433.446 142.814C431.612 142.977 429.853 142.472 428.556 141.412C427.258 140.351 426.529 138.821 426.527 137.159L426.527 22.5882C426.529 20.9256 427.258 19.2676 428.556 17.9788C429.853 16.69 431.612 15.8759 433.446 15.7158L496.039 10.2091L486.771 28.4693L495.266 27.722L485.817 45.9989ZM495.284 45.166L504.715 26.8908L495.266 27.722L504.715 9.44583L496.039 10.2091L504.653 -6.76285L416.237 1.01554C413.962 1.2142 411.78 2.24002 410.171 3.86734C408.561 5.49472 407.656 7.5903 407.654 9.69309L407.654 154.606C407.656 156.708 408.561 158.644 410.171 159.988C411.78 161.333 413.962 161.975 416.237 161.773L504.282 154.027L494.264 137.464L504.416 136.57L494.202 120.024L504.499 119.118L494.304 102.571L504.581 101.667L490.21 78.2387C489.211 76.6109 489.176 74.5653 490.115 72.7392L504.715 44.3363L495.284 45.166ZM495.284 45.166L481.13 72.591C479.613 75.5293 479.671 78.8198 481.284 81.4379L494.304 102.571L483.988 103.479L472.358 84.6378C470.13 81.0294 470.051 76.4938 472.145 72.4433L485.817 45.9989L495.284 45.166Z" fill="#4F46B4"/>
<path fill-rule="evenodd" clip-rule="evenodd" d="M539.785 -16.9374C542.383 -22.0561 542.285 -27.793 539.521 -32.3617L534.367 -40.8834L534.367 -46.0027C534.366 -46.7523 534.039 -47.4423 533.458 -47.9209C532.876 -48.3995 532.087 -48.6274 531.266 -48.5546L529.805 -48.4261L519.787 -64.9889L550.926 -67.7284C552.254 -67.8461 553.528 -67.4799 554.467 -66.7103C555.407 -65.9408 555.935 -64.8309 555.936 -63.6249L555.936 19.4951C555.935 20.7013 555.407 21.9041 554.467 22.8389C553.528 23.7738 552.254 24.3642 550.926 24.4801L517.261 27.4419L526.529 9.18099L531.266 8.76424C532.088 8.69247 532.876 8.32577 533.458 7.74483C534.039 7.1639 534.366 6.41634 534.367 5.66659L534.367 -6.26212L539.785 -16.9374ZM518.215 9.91244L526.529 9.18099L534.367 -6.26212L534.367 -40.8834L529.805 -48.4261L520.044 -47.5674L509.83 -64.113L519.787 -64.9889L509.768 -81.5524L570.586 -86.9029C572.42 -87.0654 574.179 -86.5609 575.477 -85.5003C576.774 -84.4398 577.504 -82.9101 577.505 -81.2478L577.505 33.3231C577.504 34.9856 576.774 36.6436 575.477 37.9324C574.179 39.2212 572.42 40.0352 570.587 40.1954L507.993 45.7021L517.261 27.4419L508.766 28.1892L518.215 9.91244ZM508.749 10.7451L499.317 29.0204L508.766 28.1892L499.317 46.4654L507.993 45.7021L499.379 62.6741L587.795 54.8956C590.07 54.697 592.252 53.6712 593.862 52.0438C595.471 50.4165 596.376 48.3209 596.378 46.2182L596.378 -98.6943C596.376 -100.797 595.471 -102.733 593.862 -104.077C592.252 -105.421 590.07 -106.063 587.795 -105.862L499.75 -98.1158L509.768 -81.5524L499.616 -80.6592L509.83 -64.113L499.534 -63.2072L509.728 -46.6599L499.451 -45.7557L513.822 -22.3274C514.821 -20.6996 514.856 -18.6541 513.917 -16.8279L499.317 11.5749L508.749 10.7451ZM508.749 10.7451L522.902 -16.6798C524.419 -19.6181 524.362 -22.9086 522.748 -25.5267L509.728 -46.6599L520.044 -47.5674L531.674 -28.7265C533.902 -25.1182 533.981 -20.5826 531.887 -16.5321L518.215 9.91244L508.749 10.7451Z" fill="#4F46B4"/>
<path fill-rule="evenodd" clip-rule="evenodd" d="M464.247 242.409C461.649 247.528 461.747 253.265 464.511 257.834L469.665 266.355L469.665 271.475C469.666 272.224 469.993 272.914 470.575 273.393C471.156 273.871 471.945 274.099 472.767 274.027L474.228 273.898L484.246 290.461L453.106 293.2C451.779 293.318 450.505 292.952 449.565 292.182C448.626 291.413 448.097 290.303 448.096 289.097L448.096 205.977C448.097 204.771 448.626 203.568 449.565 202.633C450.505 201.698 451.779 201.108 453.106 200.992L486.771 198.03L477.503 216.291L472.767 216.708C471.945 216.779 471.156 217.146 470.575 217.727C469.993 218.308 469.666 219.056 469.665 219.805L469.665 231.734L464.247 242.409ZM485.817 215.56L477.503 216.291L469.665 231.734L469.665 266.355L474.228 273.898L483.989 273.039L494.202 289.585L484.246 290.461L494.264 307.024L433.446 312.375C431.612 312.537 429.853 312.033 428.556 310.972C427.258 309.912 426.529 308.382 426.527 306.72L426.527 192.149C426.529 190.486 427.258 188.828 428.556 187.539C429.853 186.251 431.612 185.437 433.446 185.277L496.039 179.77L486.771 198.03L495.266 197.283L485.817 215.56ZM495.284 214.727L504.715 196.451L495.266 197.283L504.715 179.007L496.039 179.77L504.653 162.798L416.237 170.576C413.962 170.775 411.78 171.801 410.171 173.428C408.561 175.055 407.656 177.151 407.654 179.254L407.654 324.166C407.656 326.269 408.561 328.205 410.171 329.549C411.78 330.893 413.963 331.535 416.237 331.334L504.282 323.588L494.264 307.024L504.416 306.131L494.202 289.585L504.499 288.679L494.304 272.132L504.581 271.228L490.21 247.799C489.211 246.172 489.176 244.126 490.115 242.3L504.715 213.897L495.284 214.727ZM495.284 214.727L481.13 242.152C479.613 245.09 479.671 248.381 481.284 250.999L494.304 272.132L483.989 273.039L472.358 254.198C470.13 250.59 470.051 246.055 472.145 242.004L485.817 215.56L495.284 214.727Z" fill="#4F46B4"/>
<path fill-rule="evenodd" clip-rule="evenodd" d="M539.785 152.623C542.383 147.504 542.285 141.768 539.521 137.199L534.367 128.677L534.367 123.558C534.366 122.808 534.039 122.118 533.458 121.64C532.876 121.161 532.088 120.933 531.266 121.006L529.805 121.134L519.787 104.572L550.926 101.832C552.254 101.714 553.528 102.081 554.467 102.85C555.407 103.62 555.935 104.73 555.936 105.936L555.936 189.056C555.935 190.262 555.407 191.465 554.467 192.399C553.528 193.334 552.254 193.925 550.926 194.041L517.261 197.002L526.529 178.741L531.266 178.325C532.088 178.253 532.876 177.886 533.458 177.305C534.039 176.725 534.366 175.977 534.367 175.227L534.367 163.298L539.785 152.623ZM518.215 179.473L526.529 178.741L534.367 163.298L534.367 128.677L529.805 121.134L520.044 121.993L509.83 105.448L519.787 104.572L509.768 88.0081L570.586 82.6577C572.42 82.4952 574.179 82.9997 575.477 84.0602C576.774 85.1207 577.504 86.6504 577.505 88.3127L577.505 202.884C577.504 204.546 576.774 206.204 575.477 207.493C574.179 208.782 572.42 209.596 570.587 209.756L507.993 215.263L517.261 197.002L508.766 197.75L518.215 179.473ZM508.749 180.306L499.317 198.581L508.766 197.75L499.317 216.026L507.993 215.263L499.379 232.235L587.795 224.456C590.07 224.258 592.252 223.232 593.862 221.604C595.471 219.977 596.376 217.881 596.378 215.779L596.378 70.8662C596.376 68.7637 595.471 66.8274 593.862 65.4833C592.252 64.1391 590.07 63.4973 587.795 63.6989L499.75 71.4447L509.768 88.0081L499.616 88.9014L509.83 105.448L499.534 106.353L509.728 122.901L499.451 123.805L513.822 147.233C514.821 148.861 514.856 150.906 513.917 152.733L499.317 181.136L508.749 180.306ZM508.749 180.306L522.902 152.881C524.419 149.942 524.362 146.652 522.748 144.034L509.728 122.901L520.044 121.993L531.674 140.834C533.902 144.442 533.981 148.978 531.887 153.028L518.215 179.473L508.749 180.306Z" fill="#4F46B4"/>
<path fill-rule="evenodd" clip-rule="evenodd" d="M464.247 440.494C461.649 445.613 461.747 451.35 464.511 455.918L469.665 464.44L469.665 469.559C469.666 470.309 469.993 470.999 470.575 471.478C471.156 471.956 471.945 472.184 472.767 472.111L474.228 471.983L484.246 488.546L453.106 491.285C451.779 491.403 450.505 491.037 449.565 490.267C448.626 489.497 448.097 488.388 448.096 487.182L448.096 404.062C448.097 402.855 448.626 401.653 449.565 400.718C450.505 399.783 451.779 399.193 453.106 399.077L486.771 396.115L477.503 414.376L472.767 414.792C471.945 414.864 471.156 415.231 470.575 415.812C469.993 416.393 469.666 417.14 469.665 417.89L469.665 429.819L464.247 440.494ZM485.817 413.644L477.503 414.376L469.665 429.819L469.665 464.44L474.228 471.983L483.989 471.124L494.202 487.67L484.246 488.546L494.264 505.109L433.446 510.46C431.612 510.622 429.853 510.118 428.556 509.057C427.258 507.996 426.529 506.467 426.527 504.805L426.527 390.234C426.529 388.571 427.258 386.913 428.556 385.624C429.853 384.335 431.612 383.521 433.446 383.361L496.039 377.855L486.771 396.115L495.266 395.368L485.817 413.644ZM495.284 412.811L504.715 394.536L495.266 395.368L504.715 377.091L496.039 377.855L504.653 360.883L416.237 368.661C413.962 368.86 411.78 369.885 410.171 371.513C408.561 373.14 407.656 375.236 407.654 377.339L407.654 522.251C407.656 524.353 408.561 526.29 410.171 527.634C411.78 528.978 413.963 529.62 416.237 529.418L504.282 521.673L494.264 505.109L504.416 504.216L494.202 487.67L504.499 486.764L494.304 470.217L504.581 469.312L490.21 445.884C489.211 444.256 489.176 442.211 490.115 440.385L504.715 411.982L495.284 412.811ZM495.284 412.811L481.13 440.236C479.613 443.175 479.671 446.465 481.284 449.083L494.304 470.217L483.989 471.124L472.358 452.283C470.13 448.675 470.051 444.139 472.145 440.089L485.817 413.644L495.284 412.811Z" fill="#4F46B4"/>
<path fill-rule="evenodd" clip-rule="evenodd" d="M539.785 350.708C542.383 345.589 542.285 339.852 539.521 335.283L534.367 326.762L534.367 321.642C534.366 320.893 534.039 320.203 533.458 319.724C532.876 319.246 532.088 319.018 531.266 319.091L529.805 319.219L519.787 302.656L550.926 299.917C552.254 299.799 553.528 300.165 554.467 300.935C555.407 301.704 555.935 302.814 555.936 304.02L555.936 387.14C555.935 388.346 555.407 389.549 554.467 390.484C553.528 391.419 552.254 392.009 550.926 392.125L517.261 395.087L526.529 376.826L531.266 376.409C532.088 376.338 532.876 375.971 533.458 375.39C534.039 374.809 534.366 374.062 534.367 373.312L534.367 361.383L539.785 350.708ZM518.215 377.557L526.529 376.826L534.367 361.383L534.367 326.762L529.805 319.219L520.044 320.078L509.83 303.532L519.787 302.656L509.768 286.093L570.586 280.742C572.42 280.58 574.179 281.084 575.477 282.145C576.774 283.205 577.504 284.735 577.505 286.397L577.505 400.968C577.504 402.631 576.774 404.289 575.477 405.578C574.179 406.866 572.42 407.68 570.587 407.841L507.993 413.347L517.261 395.087L508.766 395.834L518.215 377.557ZM508.749 378.39L499.317 396.666L508.766 395.834L499.317 414.11L507.993 413.347L499.379 430.319L587.795 422.541C590.07 422.342 592.252 421.316 593.862 419.689C595.471 418.062 596.376 415.966 596.378 413.863L596.378 268.951C596.376 266.848 595.471 264.912 593.862 263.568C592.252 262.224 590.07 261.582 587.795 261.783L499.75 269.529L509.768 286.093L499.616 286.986L509.83 303.532L499.534 304.438L509.728 320.985L499.451 321.889L513.822 345.318C514.821 346.945 514.856 348.991 513.917 350.817L499.317 379.22L508.749 378.39ZM508.749 378.39L522.902 350.965C524.419 348.027 524.362 344.737 522.748 342.118L509.728 320.985L520.044 320.078L531.674 338.919C533.902 342.527 533.981 347.063 531.887 351.113L518.215 377.557L508.749 378.39Z" fill="#4F46B4"/>
<path fill-rule="evenodd" clip-rule="evenodd" d="M464.247 610.055C461.649 615.173 461.747 620.91 464.511 625.479L469.666 634.001L469.666 639.12C469.666 639.87 469.993 640.56 470.575 641.038C471.156 641.517 471.945 641.745 472.767 641.672L474.228 641.543L484.246 658.106L453.106 660.846C451.779 660.963 450.505 660.597 449.565 659.828C448.626 659.058 448.097 657.948 448.096 656.742L448.096 573.622C448.097 572.416 448.626 571.213 449.565 570.278C450.505 569.343 451.779 568.753 453.106 568.637L486.771 565.675L477.503 583.936L472.767 584.353C471.945 584.425 471.156 584.791 470.575 585.372C469.993 585.953 469.666 586.701 469.666 587.451L469.666 599.379L464.247 610.055ZM485.817 583.205L477.503 583.936L469.666 599.379L469.666 634.001L474.228 641.543L483.989 640.685L494.202 657.23L484.246 658.106L494.264 674.67L433.446 680.02C431.612 680.183 429.853 679.678 428.556 678.618C427.258 677.557 426.529 676.027 426.527 674.365L426.527 559.794C426.529 558.132 427.258 556.474 428.556 555.185C429.853 553.896 431.612 553.082 433.446 552.922L496.039 547.415L486.771 565.675L495.266 564.928L485.817 583.205ZM495.284 582.372L504.715 564.097L495.266 564.928L504.715 546.652L496.039 547.415L504.653 530.443L416.237 538.222C413.962 538.42 411.78 539.446 410.171 541.073C408.561 542.701 407.656 544.796 407.654 546.899L407.654 691.812C407.656 693.914 408.561 695.85 410.171 697.194C411.78 698.539 413.963 699.18 416.237 698.979L504.282 691.233L494.264 674.67L504.416 673.776L494.202 657.23L504.499 656.324L494.304 639.777L504.581 638.873L490.21 615.445C489.211 613.817 489.176 611.771 490.115 609.945L504.715 581.542L495.284 582.372ZM495.284 582.372L481.13 609.797C479.614 612.735 479.671 616.026 481.284 618.644L494.304 639.777L483.989 640.685L472.358 621.844C470.13 618.235 470.051 613.7 472.145 609.649L485.817 583.205L495.284 582.372Z" fill="#4F46B4"/>
<path fill-rule="evenodd" clip-rule="evenodd" d="M539.785 520.268C542.383 515.149 542.285 509.412 539.521 504.844L534.367 496.322L534.367 491.203C534.366 490.453 534.039 489.763 533.458 489.285C532.876 488.806 532.088 488.578 531.266 488.651L529.805 488.779L519.787 472.217L550.926 469.477C552.254 469.359 553.528 469.726 554.467 470.495C555.407 471.265 555.935 472.375 555.936 473.581L555.936 556.701C555.935 557.907 555.407 559.11 554.467 560.044C553.528 560.979 552.254 561.57 550.926 561.686L517.261 564.647L526.529 546.386L531.266 545.97C532.088 545.898 532.876 545.531 533.458 544.95C534.039 544.369 534.366 543.622 534.367 542.872L534.367 530.943L539.785 520.268ZM518.215 547.118L526.529 546.386L534.367 530.943L534.367 496.322L529.805 488.779L520.044 489.638L509.83 473.093L519.787 472.217L509.768 455.653L570.587 450.303C572.42 450.14 574.179 450.645 575.477 451.705C576.774 452.766 577.504 454.295 577.505 455.958L577.505 570.529C577.504 572.191 576.774 573.849 575.477 575.138C574.179 576.427 572.42 577.241 570.587 577.401L507.993 582.908L517.261 564.647L508.766 565.395L518.215 547.118ZM508.749 547.951L499.317 566.226L508.766 565.395L499.317 583.671L507.993 582.908L499.379 599.88L587.795 592.101C590.07 591.903 592.252 590.877 593.862 589.249C595.471 587.622 596.376 585.526 596.378 583.424L596.378 438.511C596.376 436.409 595.471 434.472 593.862 433.128C592.252 431.784 590.07 431.142 587.795 431.344L499.75 439.09L509.768 455.653L499.616 456.546L509.83 473.093L499.534 473.998L509.728 490.546L499.451 491.45L513.822 514.878C514.821 516.506 514.856 518.551 513.917 520.378L499.317 548.78L508.749 547.951ZM508.749 547.951L522.902 520.526C524.419 517.587 524.362 514.297 522.748 511.679L509.728 490.546L520.044 489.638L531.674 508.479C533.902 512.087 533.981 516.623 531.887 520.673L518.215 547.118L508.749 547.951Z" fill="#4F46B4"/>
<path fill-rule="evenodd" clip-rule="evenodd" d="M652.983 36.9292C650.385 42.0479 650.483 47.7849 653.247 52.3535L658.401 60.8753L658.401 65.9947C658.402 66.7443 658.729 67.4345 659.31 67.913C659.892 68.3916 660.681 68.6195 661.503 68.5467L662.963 68.4181L672.981 84.981L641.842 87.7205C640.514 87.8382 639.24 87.472 638.301 86.7024C637.361 85.9329 636.833 84.823 636.832 83.6171L636.832 0.4969C636.833 -0.709216 637.361 -1.91197 638.301 -2.84685C639.24 -3.78173 640.514 -4.37206 641.842 -4.48802L675.507 -7.44976L666.239 10.8112L661.503 11.2279C660.681 11.2996 659.892 11.6663 659.31 12.2472C658.729 12.8281 658.402 13.5757 658.401 14.3255L658.401 26.254L652.983 36.9292ZM674.553 10.0797L666.239 10.8112L658.401 26.254L658.401 60.8753L662.963 68.4181L672.724 67.5594L682.938 84.1051L672.981 84.981L683 101.544L622.182 106.895C620.348 107.057 618.589 106.553 617.291 105.492C615.994 104.432 615.264 102.902 615.263 101.24L615.263 -13.3312C615.264 -14.9937 615.994 -16.6517 617.291 -17.9405C618.589 -19.2294 620.348 -20.0434 622.182 -20.2035L684.775 -25.7102L675.507 -7.44976L684.002 -8.19707L674.553 10.0797ZM684.019 9.24684L693.451 -9.02843L684.002 -8.19707L693.451 -26.4735L684.775 -25.7102L693.389 -42.6822L604.973 -34.9038C602.698 -34.7051 600.516 -33.6793 598.906 -32.052C597.297 -30.4246 596.392 -28.329 596.39 -26.2262L596.39 118.686C596.392 120.789 597.297 122.725 598.906 124.069C600.516 125.413 602.698 126.055 604.973 125.854L693.018 118.108L683 101.544L693.152 100.651L682.938 84.1051L693.234 83.1993L683.04 66.6519L693.317 65.7478L678.946 42.3195C677.947 40.6917 677.912 38.6462 678.851 36.82L693.451 8.41718L684.019 9.24684ZM684.019 9.24684L669.866 36.6718C668.349 39.6101 668.406 42.9007 670.02 45.5188L683.04 66.6519L672.724 67.5594L661.094 48.7185C658.866 45.1101 658.787 40.5745 660.881 36.524L674.553 10.0797L684.019 9.24684Z" fill="#4F46B4"/>
<path fill-rule="evenodd" clip-rule="evenodd" d="M728.521 -52.8569C731.119 -57.9755 731.021 -63.7125 728.257 -68.2812L723.103 -76.8029L723.103 -81.9222C723.102 -82.6718 722.775 -83.3618 722.193 -83.8404C721.612 -84.319 720.823 -84.5469 720.001 -84.4741L718.54 -84.3456L708.522 -100.908L739.662 -103.648C740.99 -103.766 742.263 -103.399 743.203 -102.63C744.142 -101.86 744.671 -100.75 744.672 -99.5444L744.672 -16.4244C744.671 -15.2183 744.142 -14.0154 743.203 -13.0806C742.263 -12.1457 740.99 -11.5554 739.662 -11.4394L705.997 -8.47765L715.265 -26.7385L720.001 -27.1553C720.823 -27.227 721.612 -27.5937 722.193 -28.1747C722.775 -28.7556 723.102 -29.5032 723.103 -30.2529L723.103 -42.1816L728.521 -52.8569ZM706.951 -26.0071L715.265 -26.7385L723.103 -42.1816L723.103 -76.8029L718.54 -84.3456L708.78 -83.4869L698.566 -100.033L708.522 -100.908L698.504 -117.472L759.322 -122.822C761.156 -122.985 762.915 -122.48 764.212 -121.42C765.51 -120.359 766.239 -118.83 766.241 -117.167L766.241 -2.59637C766.239 -0.933897 765.51 0.724062 764.212 2.01288C762.915 3.3017 761.156 4.11572 759.322 4.27588L696.729 9.7826L705.997 -8.47765L697.502 -7.73034L706.951 -26.0071ZM697.484 -25.1744L688.053 -6.8991L697.502 -7.73034L688.053 10.5459L696.729 9.7826L688.115 26.7546L776.531 18.9761C778.806 18.7775 780.988 17.7516 782.597 16.1243C784.207 14.4969 785.112 12.4014 785.114 10.2986L785.114 -134.614C785.112 -136.716 784.207 -138.653 782.597 -139.997C780.988 -141.341 778.806 -141.983 776.531 -141.781L688.486 -134.035L698.504 -117.472L688.352 -116.579L698.566 -100.033L688.269 -99.1267L698.464 -82.5794L688.187 -81.6752L702.558 -58.2469C703.557 -56.6191 703.592 -54.5736 702.653 -52.7474L688.053 -24.3446L697.484 -25.1744ZM697.484 -25.1744L711.638 -52.5993C713.155 -55.5376 713.097 -58.8281 711.484 -61.4462L698.464 -82.5794L708.78 -83.4869L720.41 -64.6461C722.638 -61.0377 722.717 -56.5021 720.623 -52.4517L706.951 -26.0071L697.484 -25.1744Z" fill="#4F46B4"/>
<path fill-rule="evenodd" clip-rule="evenodd" d="M652.983 206.49C650.385 211.608 650.483 217.345 653.247 221.914L658.401 230.436L658.401 235.555C658.402 236.305 658.729 236.995 659.31 237.473C659.892 237.952 660.681 238.18 661.503 238.107L662.963 237.978L672.981 254.541L641.842 257.281C640.514 257.399 639.24 257.032 638.301 256.263C637.361 255.493 636.833 254.383 636.832 253.177L636.832 170.057C636.833 168.851 637.361 167.648 638.301 166.713C639.24 165.779 640.514 165.188 641.842 165.072L675.507 162.111L666.239 180.371L661.503 180.788C660.681 180.86 659.892 181.227 659.31 181.808C658.729 182.388 658.402 183.136 658.401 183.886L658.401 195.814L652.983 206.49ZM674.553 179.64L666.239 180.371L658.401 195.814L658.401 230.436L662.963 237.978L672.724 237.12L682.938 253.665L672.981 254.541L683 271.105L622.182 276.455C620.348 276.618 618.589 276.113 617.291 275.053C615.994 273.992 615.264 272.463 615.263 270.8L615.263 156.229C615.264 154.567 615.994 152.909 617.291 151.62C618.589 150.331 620.348 149.517 622.182 149.357L684.775 143.85L675.507 162.111L684.002 161.363L674.553 179.64ZM684.019 178.807L693.451 160.532L684.002 161.363L693.451 143.087L684.775 143.85L693.389 126.878L604.973 134.657C602.698 134.855 600.516 135.881 598.906 137.509C597.297 139.136 596.392 141.232 596.39 143.334L596.39 288.247C596.392 290.349 597.297 292.285 598.906 293.63C600.516 294.974 602.698 295.616 604.973 295.414L693.018 287.668L683 271.105L693.152 270.212L682.938 253.665L693.234 252.76L683.04 236.212L693.317 235.308L678.946 211.88C677.947 210.252 677.912 208.207 678.851 206.38L693.451 177.978L684.019 178.807ZM684.019 178.807L669.866 206.232C668.349 209.17 668.406 212.461 670.02 215.079L683.04 236.212L672.724 237.12L661.094 218.279C658.866 214.671 658.787 210.135 660.881 206.085L674.553 179.64L684.019 178.807Z" fill="#4F46B4"/>
<path fill-rule="evenodd" clip-rule="evenodd" d="M728.521 116.704C731.119 111.585 731.021 105.848 728.257 101.28L723.103 92.7578L723.103 87.6386C723.102 86.889 722.775 86.1989 722.193 85.7203C721.612 85.2417 720.823 85.0138 720.001 85.0866L718.54 85.2151L708.522 68.6523L739.662 65.9128C740.99 65.7951 742.263 66.1613 743.203 66.9309C744.142 67.7004 744.671 68.8103 744.672 70.0162L744.672 153.136C744.671 154.342 744.142 155.545 743.203 156.48C742.263 157.415 740.99 158.005 739.662 158.121L705.997 161.083L715.265 142.822L720.001 142.406C720.823 142.334 721.612 141.967 722.193 141.386C722.775 140.805 723.102 140.058 723.103 139.308L723.103 127.379L728.521 116.704ZM706.951 143.554L715.265 142.822L723.103 127.379L723.103 92.7578L718.54 85.2151L708.78 86.0739L698.566 69.5282L708.522 68.6523L698.504 52.0888L759.322 46.7383C761.156 46.5759 762.915 47.0803 764.212 48.1409C765.51 49.2014 766.239 50.7311 766.241 52.3934L766.241 166.964C766.239 168.627 765.51 170.285 764.212 171.574C762.915 172.862 761.156 173.676 759.322 173.837L696.729 179.343L705.997 161.083L697.502 161.83L706.951 143.554ZM697.484 144.386L688.053 162.662L697.502 161.83L688.053 180.107L696.729 179.343L688.115 196.315L776.531 188.537C778.806 188.338 780.988 187.312 782.597 185.685C784.207 184.058 785.112 181.962 785.114 179.859L785.114 34.9469C785.112 32.8444 784.207 30.9081 782.597 29.564C780.988 28.2198 778.806 27.5779 776.531 27.7795L688.486 35.5254L698.504 52.0888L688.352 52.982L698.566 69.5282L688.269 70.434L698.464 86.9815L688.187 87.8855L702.558 111.314C703.557 112.942 703.592 114.987 702.653 116.813L688.053 145.216L697.484 144.386ZM697.484 144.386L711.638 116.962C713.155 114.023 713.097 110.733 711.484 108.115L698.464 86.9815L708.78 86.0739L720.41 104.915C722.638 108.523 722.717 113.059 720.623 117.109L706.951 143.554L697.484 144.386Z" fill="#4F46B4"/>
<path fill-rule="evenodd" clip-rule="evenodd" d="M652.983 404.574C650.385 409.693 650.483 415.43 653.247 419.999L658.401 428.52L658.401 433.64C658.402 434.389 658.729 435.079 659.31 435.558C659.892 436.036 660.681 436.264 661.503 436.192L662.963 436.063L672.981 452.626L641.842 455.365C640.514 455.483 639.241 455.117 638.301 454.347C637.361 453.578 636.833 452.468 636.832 451.262L636.832 368.142C636.833 366.936 637.361 365.733 638.301 364.798C639.24 363.863 640.514 363.273 641.842 363.157L675.507 360.195L666.239 378.456L661.503 378.873C660.681 378.944 659.892 379.311 659.31 379.892C658.729 380.473 658.402 381.221 658.401 381.97L658.401 393.899L652.983 404.574ZM674.553 377.725L666.239 378.456L658.401 393.899L658.401 428.52L662.963 436.063L672.724 435.204L682.938 451.75L672.981 452.626L683 469.189L622.182 474.54C620.348 474.702 618.589 474.198 617.291 473.137C615.994 472.077 615.264 470.547 615.263 468.885L615.263 354.314C615.264 352.651 615.994 350.993 617.291 349.705C618.589 348.416 620.348 347.602 622.182 347.442L684.775 341.935L675.507 360.195L684.002 359.448L674.553 377.725ZM684.019 376.892L693.451 358.617L684.002 359.448L693.451 341.172L684.775 341.935L693.389 324.963L604.973 332.741C602.698 332.94 600.516 333.966 598.906 335.593C597.297 337.221 596.392 339.316 596.39 341.419L596.39 486.331C596.392 488.434 597.297 490.37 598.906 491.714C600.516 493.058 602.698 493.7 604.973 493.499L693.018 485.753L683 469.189L693.152 468.296L682.938 451.75L693.235 450.844L683.04 434.297L693.317 433.393L678.946 409.964C677.947 408.337 677.912 406.291 678.851 404.465L693.451 376.062L684.019 376.892ZM684.019 376.892L669.866 404.317C668.349 407.255 668.406 410.546 670.02 413.164L683.04 434.297L672.724 435.204L661.094 416.364C658.866 412.755 658.787 408.22 660.881 404.169L674.553 377.725L684.019 376.892Z" fill="#4F46B4"/>
<path fill-rule="evenodd" clip-rule="evenodd" d="M728.521 314.788C731.119 309.67 731.021 303.933 728.257 299.364L723.103 290.842L723.103 285.723C723.102 284.974 722.775 284.283 722.193 283.805C721.612 283.326 720.823 283.098 720.001 283.171L718.54 283.3L708.522 266.737L739.662 263.997C740.99 263.88 742.263 264.246 743.203 265.015C744.142 265.785 744.671 266.895 744.672 268.101L744.672 351.221C744.671 352.427 744.142 353.63 743.203 354.565C742.263 355.5 740.99 356.09 739.662 356.206L705.997 359.168L715.265 340.907L720.001 340.49C720.823 340.418 721.612 340.052 722.193 339.471C722.775 338.89 723.102 338.142 723.103 337.392L723.103 325.464L728.521 314.788ZM706.951 341.638L715.265 340.907L723.103 325.464L723.103 290.842L718.54 283.3L708.78 284.158L698.566 267.613L708.522 266.737L698.504 250.173L759.322 244.823C761.156 244.66 762.915 245.165 764.212 246.225C765.51 247.286 766.239 248.816 766.241 250.478L766.241 365.049C766.239 366.711 765.51 368.369 764.212 369.658C762.915 370.947 761.156 371.761 759.322 371.921L696.729 377.428L705.997 359.168L697.502 359.915L706.951 341.638ZM697.484 342.471L688.053 360.746L697.502 359.915L688.053 378.191L696.729 377.428L688.115 394.4L776.531 386.621C778.806 386.423 780.988 385.397 782.597 383.77C784.207 382.142 785.112 380.047 785.114 377.944L785.114 233.031C785.112 230.929 784.207 228.993 782.597 227.648C780.988 226.304 778.806 225.663 776.531 225.864L688.486 233.61L698.504 250.173L688.352 251.067L698.566 267.613L688.269 268.519L698.464 285.066L688.187 285.97L702.558 309.398C703.557 311.026 703.592 313.072 702.653 314.898L688.053 343.301L697.484 342.471ZM697.484 342.471L711.638 315.046C713.155 312.108 713.097 308.817 711.484 306.199L698.464 285.066L708.78 284.158L720.41 302.999C722.638 306.608 722.717 311.143 720.623 315.194L706.951 341.638L697.484 342.471Z" fill="#4F46B4"/>
<path fill-rule="evenodd" clip-rule="evenodd" d="M652.983 574.135C650.385 579.254 650.483 584.991 653.247 589.559L658.401 598.081L658.401 603.2C658.402 603.95 658.729 604.64 659.31 605.119C659.892 605.597 660.681 605.825 661.503 605.752L662.963 605.624L672.981 622.187L641.842 624.926C640.514 625.044 639.241 624.678 638.301 623.908C637.361 623.138 636.833 622.029 636.832 620.823L636.832 537.703C636.833 536.496 637.361 535.294 638.301 534.359C639.24 533.424 640.514 532.834 641.842 532.718L675.507 529.756L666.239 548.017L661.503 548.433C660.681 548.505 659.892 548.872 659.31 549.453C658.729 550.034 658.402 550.781 658.401 551.531L658.401 563.46L652.983 574.135ZM674.553 547.285L666.239 548.017L658.401 563.46L658.401 598.081L662.963 605.624L672.724 604.765L682.938 621.311L672.981 622.187L683 638.75L622.182 644.101C620.348 644.263 618.589 643.759 617.292 642.698C615.994 641.638 615.264 640.108 615.263 638.446L615.263 523.875C615.264 522.212 615.994 520.554 617.291 519.265C618.589 517.976 620.348 517.162 622.182 517.002L684.775 511.496L675.507 529.756L684.002 529.009L674.553 547.285ZM684.019 546.453L693.451 528.177L684.002 529.009L693.451 510.732L684.775 511.496L693.389 494.524L604.973 502.302C602.698 502.501 600.516 503.527 598.906 505.154C597.297 506.781 596.392 508.877 596.39 510.98L596.39 655.892C596.392 657.994 597.297 659.931 598.906 661.275C600.516 662.619 602.698 663.261 604.973 663.059L693.018 655.314L683 638.75L693.152 637.857L682.938 621.311L693.235 620.405L683.04 603.858L693.317 602.953L678.946 579.525C677.947 577.897 677.912 575.852 678.851 574.026L693.451 545.623L684.019 546.453ZM684.019 546.453L669.866 573.877C668.349 576.816 668.406 580.106 670.02 582.724L683.04 603.858L672.724 604.765L661.094 585.924C658.866 582.316 658.787 577.78 660.881 573.73L674.553 547.285L684.019 546.453Z" fill="#4F46B4"/>
<path fill-rule="evenodd" clip-rule="evenodd" d="M728.521 484.349C731.119 479.23 731.021 473.493 728.257 468.925L723.103 460.403L723.103 455.284C723.102 454.534 722.775 453.844 722.193 453.365C721.612 452.887 720.823 452.659 720.001 452.732L718.54 452.86L708.523 436.297L739.662 433.558C740.99 433.44 742.263 433.806 743.203 434.576C744.142 435.346 744.671 436.455 744.672 437.661L744.672 520.781C744.671 521.988 744.142 523.19 743.203 524.125C742.263 525.06 740.99 525.65 739.662 525.766L705.997 528.728L715.265 510.467L720.001 510.051C720.823 509.979 721.612 509.612 722.193 509.031C722.775 508.45 723.102 507.703 723.103 506.953L723.103 495.024L728.521 484.349ZM706.951 511.199L715.265 510.467L723.103 495.024L723.103 460.403L718.54 452.86L708.78 453.719L698.566 437.173L708.523 436.297L698.504 419.734L759.322 414.383C761.156 414.221 762.915 414.725 764.212 415.786C765.51 416.846 766.239 418.376 766.241 420.038L766.241 534.609C766.239 536.272 765.51 537.93 764.212 539.219C762.915 540.508 761.156 541.322 759.322 541.482L696.729 546.988L705.997 528.728L697.502 529.476L706.951 511.199ZM697.484 512.032L688.053 530.307L697.502 529.476L688.053 547.752L696.729 546.988L688.115 563.96L776.531 556.182C778.806 555.983 780.988 554.958 782.597 553.33C784.207 551.703 785.112 549.607 785.114 547.504L785.114 402.592C785.112 400.49 784.207 398.553 782.597 397.209C780.988 395.865 778.806 395.223 776.531 395.425L688.486 403.17L698.504 419.734L688.352 420.627L698.566 437.173L688.269 438.079L698.464 454.627L688.187 455.531L702.558 478.959C703.557 480.587 703.592 482.632 702.653 484.458L688.053 512.861L697.484 512.032ZM697.484 512.032L711.638 484.607C713.155 481.668 713.097 478.378 711.484 475.76L698.464 454.627L708.78 453.719L720.41 472.56C722.638 476.168 722.717 480.704 720.623 484.754L706.951 511.199L697.484 512.032Z" fill="#4F46B4"/>
<path fill-rule="evenodd" clip-rule="evenodd" d="M86.7759 72.8486C84.1775 77.9672 84.2756 83.7042 87.0397 88.2729L92.194 96.7947L92.194 101.914C92.1946 102.664 92.5216 103.354 93.1032 103.832C93.6849 104.311 94.4734 104.539 95.2953 104.466L96.7562 104.337L106.774 120.9L75.6349 123.64C74.3071 123.757 73.0333 123.391 72.0937 122.622C71.1542 121.852 70.6259 120.742 70.6251 119.536L70.625 36.4161C70.6258 35.21 71.1542 34.0072 72.0937 33.0723C73.0333 32.1375 74.3071 31.5471 75.6348 31.4311L109.3 28.4694L100.032 46.7302L95.2953 47.147C94.4734 47.2187 93.6849 47.5854 93.1032 48.1664C92.5216 48.7473 92.1946 49.4949 92.194 50.2446L92.194 62.1733L86.7759 72.8486ZM108.346 45.9989L100.032 46.7302L92.194 62.1733L92.194 96.7947L96.7562 104.337L106.517 103.479L116.731 120.024L106.774 120.9L116.792 137.464L55.9744 142.814C54.1407 142.977 52.3818 142.472 51.0843 141.412C49.7869 140.351 49.0572 138.821 49.056 137.159L49.056 22.5882C49.0572 20.9257 49.7869 19.2676 51.0843 17.9788C52.3818 16.69 54.1407 15.876 55.9744 15.7158L118.568 10.2092L109.3 28.4694L117.795 27.722L108.346 45.9989ZM117.812 45.1661L127.244 26.8908L117.795 27.722L127.244 9.44586L118.568 10.2092L127.181 -6.76282L38.7657 1.01557C36.491 1.21424 34.3088 2.24006 32.6992 3.86738C31.0896 5.49476 30.1844 7.59034 30.1829 9.69312L30.183 154.606C30.1845 156.708 31.0896 158.644 32.6992 159.988C34.3088 161.333 36.491 161.975 38.7657 161.773L126.811 154.027L116.792 137.464L126.945 136.57L116.731 120.024L127.027 119.118L116.833 102.571L127.11 101.667L112.739 78.2387C111.74 76.6109 111.705 74.5654 112.643 72.7392L127.244 44.3363L117.812 45.1661ZM117.812 45.1661L103.659 72.591C102.142 75.5293 102.199 78.8198 103.813 81.4379L116.833 102.571L106.517 103.479L94.8865 84.6378C92.6586 81.0295 92.5795 76.4938 94.6739 72.4434L108.346 45.9989L117.812 45.1661Z" fill="#4F46B4"/>
<path fill-rule="evenodd" clip-rule="evenodd" d="M162.314 -16.9373C164.912 -22.056 164.814 -27.793 162.05 -32.3616L156.895 -40.8834L156.895 -46.0026C156.895 -46.7523 156.568 -47.4423 155.986 -47.9209C155.405 -48.3995 154.616 -48.6274 153.794 -48.5546L152.333 -48.4261L142.315 -64.9889L173.455 -67.7284C174.782 -67.8461 176.056 -67.4799 176.996 -66.7103C177.935 -65.9407 178.464 -64.8309 178.464 -63.6249L178.464 19.4952C178.464 20.7013 177.935 21.9041 176.996 22.839C176.056 23.7739 174.782 24.3642 173.455 24.4802L139.79 27.4419L149.058 9.18102L153.794 8.76428C154.616 8.6925 155.405 8.3258 155.986 7.74487C156.568 7.16393 156.895 6.41638 156.895 5.66662L156.895 -6.26209L162.314 -16.9373ZM140.744 9.91247L149.058 9.18102L156.895 -6.26209L156.895 -40.8834L152.333 -48.4261L142.572 -47.5673L132.359 -64.113L142.315 -64.9889L132.297 -81.5524L193.115 -86.9028C194.949 -87.0653 196.708 -86.5609 198.005 -85.5003C199.303 -84.4398 200.032 -82.9101 200.033 -81.2478L200.033 33.3232C200.032 34.9856 199.303 36.6436 198.005 37.9324C196.708 39.2212 194.949 40.0353 193.115 40.1954L130.522 45.7021L139.79 27.4419L131.295 28.1892L140.744 9.91247ZM131.277 10.7452L121.846 29.0204L131.295 28.1892L121.846 46.4655L130.522 45.7021L121.908 62.6741L210.324 54.8957C212.598 54.697 214.781 53.6712 216.39 52.0438C218 50.4165 218.905 48.321 218.907 46.2182L218.906 -98.6943C218.905 -100.797 218 -102.733 216.39 -104.077C214.781 -105.421 212.598 -106.063 210.324 -105.862L122.279 -98.1158L132.297 -81.5524L122.145 -80.6591L132.359 -64.113L122.062 -63.2072L132.257 -46.6599L121.98 -45.7557L136.351 -22.3274C137.349 -20.6996 137.385 -18.6541 136.446 -16.8279L121.846 11.5749L131.277 10.7452ZM131.277 10.7452L145.431 -16.6798C146.947 -19.618 146.89 -22.9086 145.277 -25.5267L132.257 -46.6599L142.572 -47.5673L154.203 -28.7265C156.431 -25.1182 156.51 -20.5826 154.416 -16.5321L140.744 9.91247L131.277 10.7452Z" fill="#4F46B4"/>
<path fill-rule="evenodd" clip-rule="evenodd" d="M86.7759 242.409C84.1776 247.528 84.2756 253.265 87.0397 257.834L92.194 266.355L92.194 271.475C92.1946 272.224 92.5216 272.914 93.1032 273.393C93.6849 273.871 94.4734 274.099 95.2954 274.027L96.7562 273.898L106.774 290.461L75.6349 293.2C74.3071 293.318 73.0333 292.952 72.0938 292.182C71.1542 291.413 70.6259 290.303 70.6251 289.097L70.625 205.977C70.6259 204.771 71.1542 203.568 72.0938 202.633C73.0333 201.698 74.3071 201.108 75.6348 200.992L109.3 198.03L100.032 216.291L95.2954 216.708C94.4734 216.779 93.6849 217.146 93.1032 217.727C92.5216 218.308 92.1946 219.056 92.194 219.805L92.194 231.734L86.7759 242.409ZM108.346 215.56L100.032 216.291L92.194 231.734L92.194 266.355L96.7562 273.898L106.517 273.039L116.731 289.585L106.774 290.461L116.792 307.024L55.9744 312.375C54.1408 312.537 52.3818 312.033 51.0843 310.972C49.7869 309.912 49.0573 308.382 49.056 306.72L49.056 192.149C49.0573 190.486 49.7869 188.828 51.0843 187.539C52.3818 186.251 54.1407 185.437 55.9744 185.277L118.568 179.77L109.3 198.03L117.795 197.283L108.346 215.56ZM117.812 214.727L127.244 196.451L117.795 197.283L127.244 179.007L118.568 179.77L127.181 162.798L38.7657 170.576C36.491 170.775 34.3088 171.801 32.6992 173.428C31.0896 175.055 30.1844 177.151 30.1829 179.254L30.183 324.166C30.1845 326.269 31.0896 328.205 32.6992 329.549C34.3088 330.893 36.491 331.535 38.7658 331.334L126.811 323.588L116.792 307.024L126.945 306.131L116.731 289.585L127.027 288.679L116.833 272.132L127.11 271.228L112.739 247.799C111.74 246.172 111.705 244.126 112.644 242.3L127.244 213.897L117.812 214.727ZM117.812 214.727L103.659 242.152C102.142 245.09 102.199 248.381 103.813 250.999L116.833 272.132L106.517 273.039L94.8865 254.198C92.6586 250.59 92.5795 246.055 94.674 242.004L108.346 215.56L117.812 214.727Z" fill="#4F46B4"/>
<path fill-rule="evenodd" clip-rule="evenodd" d="M162.314 152.623C164.912 147.505 164.814 141.768 162.05 137.199L156.895 128.677L156.895 123.558C156.895 122.808 156.568 122.118 155.986 121.64C155.405 121.161 154.616 120.933 153.794 121.006L152.333 121.134L142.315 104.572L173.455 101.832C174.782 101.714 176.056 102.081 176.996 102.85C177.935 103.62 178.464 104.73 178.464 105.936L178.464 189.056C178.464 190.262 177.935 191.465 176.996 192.4C176.056 193.334 174.782 193.925 173.455 194.041L139.79 197.002L149.058 178.742L153.794 178.325C154.616 178.253 155.405 177.886 155.986 177.305C156.568 176.725 156.895 175.977 156.896 175.227L156.895 163.298L162.314 152.623ZM140.744 179.473L149.058 178.742L156.895 163.298L156.895 128.677L152.333 121.134L142.572 121.993L132.359 105.448L142.315 104.572L132.297 88.0082L193.115 82.6577C194.949 82.4952 196.708 82.9997 198.005 84.0602C199.303 85.1208 200.032 86.6504 200.033 88.3127L200.034 202.884C200.032 204.546 199.303 206.204 198.005 207.493C196.708 208.782 194.949 209.596 193.115 209.756L130.522 215.263L139.79 197.002L131.295 197.75L140.744 179.473ZM131.277 180.306L121.846 198.581L131.295 197.75L121.846 216.026L130.522 215.263L121.908 232.235L210.324 224.456C212.598 224.258 214.781 223.232 216.39 221.604C218 219.977 218.905 217.881 218.907 215.779L218.906 70.8663C218.905 68.7638 218 66.8274 216.39 65.4833C214.781 64.1391 212.598 63.4973 210.324 63.6989L122.279 71.4448L132.297 88.0082L122.145 88.9014L132.359 105.448L122.062 106.353L132.257 122.901L121.98 123.805L136.351 147.233C137.349 148.861 137.385 150.906 136.446 152.733L121.846 181.136L131.277 180.306ZM131.277 180.306L145.431 152.881C146.947 149.942 146.89 146.652 145.277 144.034L132.257 122.901L142.572 121.993L154.203 140.834C156.431 144.442 156.51 148.978 154.416 153.028L140.744 179.473L131.277 180.306Z" fill="#4F46B4"/>
<path fill-rule="evenodd" clip-rule="evenodd" d="M86.776 440.494C84.1776 445.613 84.2757 451.35 87.0397 455.918L92.1941 464.44L92.1941 469.559C92.1946 470.309 92.5216 470.999 93.1032 471.478C93.6849 471.956 94.4734 472.184 95.2954 472.111L96.7562 471.983L106.774 488.546L75.6349 491.285C74.3072 491.403 73.0334 491.037 72.0938 490.267C71.1543 489.497 70.6259 488.388 70.6251 487.182L70.625 404.062C70.6259 402.855 71.1543 401.653 72.0938 400.718C73.0333 399.783 74.3071 399.193 75.6348 399.077L109.3 396.115L100.032 414.376L95.2954 414.792C94.4734 414.864 93.6849 415.231 93.1032 415.812C92.5216 416.393 92.1946 417.14 92.1941 417.89L92.1941 429.819L86.776 440.494ZM108.346 413.644L100.032 414.376L92.1941 429.819L92.1941 464.44L96.7562 471.983L106.517 471.124L116.731 487.67L106.774 488.546L116.793 505.109L55.9744 510.46C54.1408 510.622 52.3818 510.118 51.0843 509.057C49.7869 507.997 49.0573 506.467 49.0561 504.805L49.0561 390.234C49.0573 388.571 49.7869 386.913 51.0843 385.624C52.3818 384.335 54.1408 383.521 55.9744 383.361L118.568 377.855L109.3 396.115L117.795 395.368L108.346 413.644ZM117.812 412.812L127.244 394.536L117.795 395.368L127.244 377.091L118.568 377.855L127.181 360.883L38.7658 368.661C36.491 368.86 34.3088 369.886 32.6992 371.513C31.0896 373.14 30.1845 375.236 30.1829 377.339L30.183 522.251C30.1845 524.353 31.0896 526.29 32.6993 527.634C34.3088 528.978 36.4911 529.62 38.7658 529.418L126.811 521.673L116.793 505.109L126.945 504.216L116.731 487.67L127.027 486.764L116.833 470.217L127.11 469.312L112.739 445.884C111.74 444.256 111.705 442.211 112.644 440.385L127.244 411.982L117.812 412.812ZM117.812 412.812L103.659 440.236C102.142 443.175 102.199 446.465 103.813 449.083L116.833 470.217L106.517 471.124L94.8866 452.283C92.6586 448.675 92.5795 444.139 94.674 440.089L108.346 413.644L117.812 412.812Z" fill="#4F46B4"/>
<path fill-rule="evenodd" clip-rule="evenodd" d="M162.314 350.708C164.912 345.589 164.814 339.852 162.05 335.283L156.895 326.762L156.895 321.643C156.895 320.893 156.568 320.203 155.986 319.724C155.405 319.246 154.616 319.018 153.794 319.091L152.333 319.219L142.315 302.656L173.455 299.917C174.782 299.799 176.056 300.165 176.996 300.935C177.935 301.704 178.464 302.814 178.464 304.02L178.464 387.14C178.464 388.346 177.935 389.549 176.996 390.484C176.056 391.419 174.782 392.009 173.455 392.125L139.79 395.087L149.058 376.826L153.794 376.409C154.616 376.338 155.405 375.971 155.986 375.39C156.568 374.809 156.895 374.062 156.896 373.312L156.895 361.383L162.314 350.708ZM140.744 377.558L149.058 376.826L156.895 361.383L156.895 326.762L152.333 319.219L142.572 320.078L132.359 303.532L142.315 302.656L132.297 286.093L193.115 280.742C194.949 280.58 196.708 281.084 198.005 282.145C199.303 283.205 200.032 284.735 200.033 286.397L200.034 400.968C200.032 402.631 199.303 404.289 198.005 405.578C196.708 406.866 194.949 407.68 193.115 407.841L130.522 413.347L139.79 395.087L131.295 395.834L140.744 377.558ZM131.277 378.39L121.846 396.666L131.295 395.834L121.846 414.111L130.522 413.347L121.908 430.319L210.324 422.541C212.598 422.342 214.781 421.316 216.39 419.689C218 418.062 218.905 415.966 218.907 413.863L218.907 268.951C218.905 266.848 218 264.912 216.39 263.568C214.781 262.224 212.598 261.582 210.324 261.783L122.279 269.529L132.297 286.093L122.145 286.986L132.359 303.532L122.062 304.438L132.257 320.985L121.98 321.889L136.351 345.318C137.349 346.946 137.385 348.991 136.446 350.817L121.846 379.22L131.277 378.39ZM131.277 378.39L145.431 350.965C146.947 348.027 146.89 344.737 145.277 342.118L132.257 320.985L142.572 320.078L154.203 338.919C156.431 342.527 156.51 347.063 154.416 351.113L140.744 377.558L131.277 378.39Z" fill="#4F46B4"/>
<path fill-rule="evenodd" clip-rule="evenodd" d="M86.776 610.055C84.1776 615.173 84.2757 620.91 87.0397 625.479L92.1941 634.001L92.1941 639.12C92.1946 639.87 92.5216 640.56 93.1033 641.038C93.6849 641.517 94.4734 641.745 95.2954 641.672L96.7562 641.543L106.774 658.106L75.6349 660.846C74.3072 660.963 73.0334 660.597 72.0938 659.828C71.1543 659.058 70.626 657.948 70.6251 656.742L70.625 573.622C70.6259 572.416 71.1543 571.213 72.0938 570.278C73.0334 569.343 74.3071 568.753 75.6349 568.637L109.3 565.675L100.032 583.936L95.2954 584.353C94.4734 584.425 93.6849 584.791 93.1032 585.372C92.5216 585.953 92.1946 586.701 92.1941 587.451L92.1941 599.379L86.776 610.055ZM108.346 583.205L100.032 583.936L92.1941 599.379L92.1941 634.001L96.7562 641.543L106.517 640.685L116.731 657.23L106.774 658.106L116.793 674.67L55.9744 680.02C54.1408 680.183 52.3818 679.678 51.0843 678.618C49.7869 677.557 49.0573 676.027 49.0561 674.365L49.0561 559.794C49.0573 558.132 49.7869 556.474 51.0843 555.185C52.3818 553.896 54.1408 553.082 55.9744 552.922L118.568 547.415L109.3 565.675L117.795 564.928L108.346 583.205ZM117.812 582.372L127.244 564.097L117.795 564.928L127.244 546.652L118.568 547.415L127.181 530.443L38.7658 538.222C36.4911 538.42 34.3088 539.446 32.6993 541.073C31.0896 542.701 30.1845 544.796 30.183 546.899L30.183 691.812C30.1846 693.914 31.0896 695.85 32.6993 697.194C34.3088 698.539 36.4911 699.181 38.7658 698.979L126.811 691.233L116.793 674.67L126.945 673.776L116.731 657.23L127.027 656.324L116.833 639.777L127.11 638.873L112.739 615.445C111.74 613.817 111.705 611.771 112.644 609.945L127.244 581.542L117.812 582.372ZM117.812 582.372L103.659 609.797C102.142 612.735 102.199 616.026 103.813 618.644L116.833 639.777L106.517 640.685L94.8866 621.844C92.6586 618.235 92.5795 613.7 94.674 609.649L108.346 583.205L117.812 582.372Z" fill="#4F46B4"/>
<path fill-rule="evenodd" clip-rule="evenodd" d="M162.314 520.268C164.912 515.149 164.814 509.413 162.05 504.844L156.895 496.322L156.895 491.203C156.895 490.453 156.568 489.763 155.986 489.285C155.405 488.806 154.616 488.578 153.794 488.651L152.333 488.779L142.315 472.217L173.455 469.477C174.782 469.359 176.056 469.726 176.996 470.495C177.935 471.265 178.464 472.375 178.464 473.581L178.465 556.701C178.464 557.907 177.935 559.11 176.996 560.044C176.056 560.979 174.782 561.57 173.455 561.686L139.79 564.647L149.058 546.386L153.794 545.97C154.616 545.898 155.405 545.531 155.986 544.95C156.568 544.369 156.895 543.622 156.896 542.872L156.895 530.943L162.314 520.268ZM140.744 547.118L149.058 546.386L156.895 530.943L156.895 496.322L152.333 488.779L142.572 489.638L132.359 473.093L142.315 472.217L132.297 455.653L193.115 450.303C194.949 450.14 196.708 450.645 198.005 451.705C199.303 452.766 200.032 454.295 200.033 455.958L200.034 570.529C200.032 572.191 199.303 573.849 198.005 575.138C196.708 576.427 194.949 577.241 193.115 577.401L130.522 582.908L139.79 564.647L131.295 565.395L140.744 547.118ZM131.277 547.951L121.846 566.226L131.295 565.395L121.846 583.671L130.522 582.908L121.908 599.88L210.324 592.101C212.598 591.903 214.781 590.877 216.39 589.249C218 587.622 218.905 585.526 218.907 583.424L218.907 438.511C218.905 436.409 218 434.472 216.39 433.128C214.781 431.784 212.598 431.142 210.324 431.344L122.279 439.09L132.297 455.653L122.145 456.546L132.359 473.093L122.062 473.998L132.257 490.546L121.98 491.45L136.351 514.878C137.349 516.506 137.385 518.551 136.446 520.378L121.846 548.78L131.277 547.951ZM131.277 547.951L145.431 520.526C146.947 517.587 146.89 514.297 145.277 511.679L132.257 490.546L142.572 489.638L154.203 508.479C156.431 512.087 156.51 516.623 154.416 520.673L140.744 547.118L131.277 547.951Z" fill="#4F46B4"/>
<path fill-rule="evenodd" clip-rule="evenodd" d="M275.512 36.9292C272.913 42.0479 273.011 47.7849 275.775 52.3536L280.93 60.8753L280.93 65.9947C280.93 66.7444 281.257 67.4345 281.839 67.9131C282.421 68.3916 283.209 68.6196 284.031 68.5467L285.492 68.4181L295.51 84.9811L264.371 87.7206C263.043 87.8382 261.769 87.472 260.829 86.7024C259.89 85.9329 259.362 84.823 259.361 83.6171L259.361 0.496933C259.362 -0.709183 259.89 -1.91194 260.829 -2.84682C261.769 -3.78169 263.043 -4.37202 264.371 -4.48799L298.036 -7.44973L288.767 10.8112L284.031 11.2279C283.209 11.2997 282.421 11.6663 281.839 12.2472C281.257 12.8282 280.93 13.5757 280.93 14.3255L280.93 26.254L275.512 36.9292ZM297.081 10.0797L288.767 10.8112L280.93 26.254L280.93 60.8753L285.492 68.4181L295.253 67.5594L305.467 84.1051L295.51 84.9811L305.528 101.544L244.71 106.895C242.877 107.057 241.117 106.553 239.82 105.492C238.523 104.432 237.793 102.902 237.792 101.24L237.792 -13.3312C237.793 -14.9937 238.523 -16.6517 239.82 -17.9405C241.117 -19.2293 242.877 -20.0434 244.71 -20.2035L307.303 -25.7102L298.036 -7.44973L306.53 -8.19704L297.081 10.0797ZM306.548 9.24687L315.979 -9.0284L306.53 -8.19704L315.979 -26.4735L307.303 -25.7102L315.917 -42.6821L227.502 -34.9038C225.227 -34.7051 223.045 -33.6793 221.435 -32.052C219.825 -30.4246 218.92 -28.329 218.919 -26.2262L218.919 118.686C218.92 120.789 219.825 122.725 221.435 124.069C223.045 125.413 225.227 126.055 227.502 125.854L315.547 118.108L305.528 101.544L315.681 100.651L305.467 84.1051L315.763 83.1993L305.568 66.6519L315.845 65.7478L301.474 42.3196C300.476 40.6918 300.44 38.6462 301.379 36.82L315.979 8.41722L306.548 9.24687ZM306.548 9.24687L292.394 36.6718C290.878 39.6102 290.935 42.9007 292.548 45.5188L305.568 66.6519L295.253 67.5594L283.622 48.7185C281.394 45.1102 281.315 40.5745 283.41 36.524L297.081 10.0797L306.548 9.24687Z" fill="#4F46B4"/>
<path fill-rule="evenodd" clip-rule="evenodd" d="M351.049 -52.8568C353.648 -57.9755 353.549 -63.7125 350.785 -68.2812L345.631 -76.8028L345.631 -81.9221C345.631 -82.6718 345.304 -83.3618 344.722 -83.8404C344.14 -84.319 343.352 -84.5469 342.53 -84.4741L341.069 -84.3455L331.051 -100.908L362.19 -103.648C363.518 -103.766 364.792 -103.399 365.731 -102.63C366.671 -101.86 367.199 -100.75 367.2 -99.5444L367.2 -16.4243C367.199 -15.2182 366.671 -14.0154 365.731 -13.0805C364.792 -12.1457 363.518 -11.5553 362.19 -11.4394L328.525 -8.47762L337.793 -26.7385L342.53 -27.1552C343.352 -27.227 344.14 -27.5937 344.722 -28.1746C345.304 -28.7556 345.631 -29.5031 345.631 -30.2529L345.631 -42.1816L351.049 -52.8568ZM329.479 -26.007L337.793 -26.7385L345.631 -42.1816L345.631 -76.8028L341.069 -84.3455L331.308 -83.4868L321.094 -100.032L331.051 -100.908L321.033 -117.472L381.851 -122.822C383.684 -122.985 385.443 -122.48 386.741 -121.42C388.038 -120.359 388.768 -118.83 388.769 -117.167L388.769 -2.59634C388.768 -0.933864 388.038 0.724095 386.741 2.01291C385.443 3.30173 383.684 4.11576 381.851 4.27591L319.258 9.78263L328.525 -8.47762L320.03 -7.73031L329.479 -26.007ZM320.013 -25.1743L310.582 -6.89907L320.03 -7.73031L310.582 10.5459L319.258 9.78263L310.644 26.7546L399.059 18.9762C401.334 18.7775 403.516 17.7517 405.126 16.1244C406.736 14.497 407.641 12.4015 407.642 10.2987L407.642 -134.614C407.641 -136.716 406.736 -138.653 405.126 -139.997C403.516 -141.341 401.334 -141.983 399.059 -141.781L311.014 -134.035L321.033 -117.472L310.88 -116.579L321.094 -100.032L310.798 -99.1267L320.993 -82.5794L310.715 -81.6751L325.086 -58.2469C326.085 -56.619 326.121 -54.5736 325.182 -52.7474L310.582 -24.3446L320.013 -25.1743ZM320.013 -25.1743L334.166 -52.5993C335.683 -55.5376 335.626 -58.8281 334.013 -61.4462L320.993 -82.5794L331.308 -83.4868L342.939 -64.646C345.167 -61.0377 345.246 -56.5021 343.151 -52.4516L329.479 -26.007L320.013 -25.1743Z" fill="#4F46B4"/>
<path fill-rule="evenodd" clip-rule="evenodd" d="M275.512 206.49C272.913 211.609 273.011 217.345 275.775 221.914L280.93 230.436L280.93 235.555C280.93 236.305 281.257 236.995 281.839 237.473C282.421 237.952 283.209 238.18 284.031 238.107L285.492 237.978L295.51 254.541L264.371 257.281C263.043 257.399 261.769 257.032 260.829 256.263C259.89 255.493 259.362 254.383 259.361 253.177L259.361 170.057C259.362 168.851 259.89 167.648 260.829 166.713C261.769 165.779 263.043 165.188 264.371 165.072L298.036 162.111L288.768 180.372L284.031 180.788C283.209 180.86 282.421 181.227 281.839 181.808C281.257 182.389 280.93 183.136 280.93 183.886L280.93 195.814L275.512 206.49ZM297.081 179.64L288.768 180.372L280.93 195.814L280.93 230.436L285.492 237.978L295.253 237.12L305.467 253.665L295.51 254.541L305.528 271.105L244.71 276.455C242.877 276.618 241.118 276.113 239.82 275.053C238.523 273.992 237.793 272.463 237.792 270.8L237.792 156.229C237.793 154.567 238.523 152.909 239.82 151.62C241.117 150.331 242.877 149.517 244.71 149.357L307.303 143.85L298.036 162.111L306.531 161.363L297.081 179.64ZM306.548 178.807L315.979 160.532L306.531 161.363L315.979 143.087L307.303 143.85L315.917 126.878L227.502 134.657C225.227 134.855 223.045 135.881 221.435 137.509C219.825 139.136 218.92 141.232 218.919 143.334L218.919 288.247C218.92 290.349 219.825 292.286 221.435 293.63C223.045 294.974 225.227 295.616 227.502 295.414L315.547 287.668L305.528 271.105L315.681 270.212L305.467 253.665L315.763 252.76L305.568 236.212L315.845 235.308L301.474 211.88C300.476 210.252 300.44 208.207 301.379 206.38L315.979 177.978L306.548 178.807ZM306.548 178.807L292.394 206.232C290.878 209.171 290.935 212.461 292.548 215.079L305.568 236.212L295.253 237.12L283.622 218.279C281.394 214.671 281.315 210.135 283.41 206.085L297.081 179.64L306.548 178.807Z" fill="#4F46B4"/>
<path fill-rule="evenodd" clip-rule="evenodd" d="M351.049 116.704C353.648 111.585 353.549 105.848 350.785 101.28L345.631 92.7579L345.631 87.6386C345.631 86.889 345.304 86.1989 344.722 85.7203C344.14 85.2417 343.352 85.0138 342.53 85.0866L341.069 85.2151L331.051 68.6523L362.19 65.9128C363.518 65.7951 364.792 66.1614 365.731 66.9309C366.671 67.7005 367.199 68.8103 367.2 70.0163L367.2 153.136C367.199 154.343 366.671 155.545 365.731 156.48C364.792 157.415 363.518 158.005 362.19 158.121L328.525 161.083L337.793 142.822L342.53 142.406C343.352 142.334 344.14 141.967 344.722 141.386C345.304 140.805 345.631 140.058 345.631 139.308L345.631 127.379L351.049 116.704ZM329.479 143.554L337.793 142.822L345.631 127.379L345.631 92.7579L341.069 85.2151L331.308 86.074L321.094 69.5282L331.051 68.6523L321.033 52.0888L381.851 46.7384C383.684 46.5759 385.443 47.0804 386.741 48.1409C388.038 49.2015 388.768 50.7311 388.769 52.3934L388.769 166.964C388.768 168.627 388.038 170.285 386.741 171.574C385.443 172.863 383.684 173.676 381.851 173.837L319.258 179.343L328.525 161.083L320.03 161.83L329.479 143.554ZM320.013 144.386L310.582 162.662L320.03 161.83L310.582 180.107L319.258 179.343L310.644 196.315L399.059 188.537C401.334 188.338 403.516 187.312 405.126 185.685C406.736 184.058 407.641 181.962 407.642 179.859L407.642 34.9469C407.641 32.8445 406.736 30.9081 405.126 29.564C403.516 28.2198 401.334 27.578 399.059 27.7796L311.014 35.5254L321.033 52.0888L310.88 52.982L321.094 69.5282L310.798 70.4341L320.993 86.9815L310.715 87.8855L325.086 111.314C326.085 112.942 326.121 114.987 325.182 116.813L310.582 145.216L320.013 144.386ZM320.013 144.386L334.166 116.962C335.683 114.023 335.626 110.733 334.013 108.115L320.993 86.9815L331.308 86.074L342.939 104.915C345.167 108.523 345.246 113.059 343.151 117.109L329.479 143.554L320.013 144.386Z" fill="#4F46B4"/>
<path fill-rule="evenodd" clip-rule="evenodd" d="M275.512 404.574C272.913 409.693 273.011 415.43 275.775 419.999L280.93 428.52L280.93 433.64C280.93 434.389 281.257 435.079 281.839 435.558C282.421 436.036 283.209 436.264 284.031 436.192L285.492 436.063L295.51 452.626L264.371 455.365C263.043 455.483 261.769 455.117 260.829 454.347C259.89 453.578 259.362 452.468 259.361 451.262L259.361 368.142C259.362 366.936 259.89 365.733 260.829 364.798C261.769 363.863 263.043 363.273 264.371 363.157L298.036 360.195L288.768 378.456L284.031 378.873C283.209 378.945 282.421 379.311 281.839 379.892C281.257 380.473 280.93 381.221 280.93 381.97L280.93 393.899L275.512 404.574ZM297.082 377.725L288.768 378.456L280.93 393.899L280.93 428.52L285.492 436.063L295.253 435.204L305.467 451.75L295.51 452.626L305.528 469.189L244.71 474.54C242.877 474.702 241.118 474.198 239.82 473.137C238.523 472.077 237.793 470.547 237.792 468.885L237.792 354.314C237.793 352.651 238.523 350.993 239.82 349.705C241.118 348.416 242.877 347.602 244.71 347.442L307.303 341.935L298.036 360.195L306.531 359.448L297.082 377.725ZM306.548 376.892L315.979 358.617L306.531 359.448L315.979 341.172L307.303 341.935L315.917 324.963L227.502 332.741C225.227 332.94 223.045 333.966 221.435 335.593C219.825 337.221 218.92 339.316 218.919 341.419L218.919 486.331C218.92 488.434 219.825 490.37 221.435 491.714C223.045 493.058 225.227 493.7 227.502 493.499L315.547 485.753L305.528 469.189L315.681 468.296L305.467 451.75L315.763 450.844L305.568 434.297L315.845 433.393L301.475 409.965C300.476 408.337 300.44 406.291 301.379 404.465L315.979 376.062L306.548 376.892ZM306.548 376.892L292.394 404.317C290.878 407.255 290.935 410.546 292.548 413.164L305.568 434.297L295.253 435.204L283.622 416.364C281.394 412.755 281.315 408.22 283.41 404.169L297.082 377.725L306.548 376.892Z" fill="#4F46B4"/>
<path fill-rule="evenodd" clip-rule="evenodd" d="M351.049 314.788C353.648 309.67 353.549 303.933 350.786 299.364L345.076 289.924L345.076 284.745C345.075 283.996 344.748 283.306 344.166 282.827C343.585 282.348 342.796 282.12 341.974 282.193L340.479 282.325L331.051 266.737L362.19 263.997C363.518 263.88 364.792 264.246 365.731 265.015C366.671 265.785 367.199 266.895 367.2 268.101L367.2 351.221C367.199 352.427 366.671 353.63 365.731 354.565C364.792 355.5 363.518 356.09 362.19 356.206L328.525 359.168L338.339 339.832L341.974 339.512C342.796 339.44 343.585 339.074 344.166 338.493C344.748 337.912 345.075 337.164 345.076 336.414L345.076 326.559L351.049 314.788ZM330.036 340.562L338.339 339.832L345.076 326.559L345.076 289.924L340.479 282.325L330.707 283.185L321.094 267.613L331.051 266.737L321.033 250.173L381.851 244.823C383.684 244.66 385.443 245.165 386.741 246.225C388.038 247.286 388.768 248.816 388.769 250.478L388.769 365.049C388.768 366.711 388.038 368.369 386.741 369.658C385.443 370.947 383.684 371.761 381.851 371.921L319.258 377.428L328.525 359.168L320.03 359.915L330.036 340.562ZM320.568 341.395L310.582 360.746L320.03 359.915L310.582 378.191L319.258 377.428L310.644 394.4L399.059 386.621C401.334 386.423 403.516 385.397 405.126 383.77C406.736 382.142 407.641 380.047 407.642 377.944L407.642 233.032C407.641 230.929 406.736 228.993 405.126 227.649C403.516 226.304 401.334 225.663 399.059 225.864L311.014 233.61L321.033 250.173L310.88 251.067L321.094 267.613L310.798 268.519L320.392 284.092L310.16 284.992L324.531 308.42C325.53 310.048 325.565 312.094 324.626 313.92L310.026 342.323L320.568 341.395ZM320.568 341.395L334.166 315.046C335.683 312.108 335.626 308.817 334.013 306.199L320.392 284.092L330.707 283.185L342.939 302.999C345.167 306.608 345.246 311.143 343.151 315.194L330.036 340.562L320.568 341.395Z" fill="#4F46B4"/>
<path fill-rule="evenodd" clip-rule="evenodd" d="M275.512 574.135C272.913 579.254 273.011 584.991 275.775 589.559L280.93 598.081L280.93 603.2C280.93 603.95 281.257 604.64 281.839 605.119C282.421 605.597 283.209 605.825 284.031 605.752L285.492 605.624L295.51 622.187L264.371 624.926C263.043 625.044 261.769 624.678 260.83 623.908C259.89 623.138 259.362 622.029 259.361 620.823L259.361 537.703C259.362 536.496 259.89 535.294 260.83 534.359C261.769 533.424 263.043 532.834 264.371 532.718L298.036 529.756L288.768 548.017L284.031 548.433C283.209 548.505 282.421 548.872 281.839 549.453C281.257 550.034 280.93 550.781 280.93 551.531L280.93 563.46L275.512 574.135ZM297.082 547.285L288.768 548.017L280.93 563.46L280.93 598.081L285.492 605.624L295.253 604.765L305.467 621.311L295.51 622.187L305.528 638.75L244.71 644.101C242.877 644.263 241.118 643.759 239.82 642.698C238.523 641.638 237.793 640.108 237.792 638.446L237.792 523.875C237.793 522.212 238.523 520.554 239.82 519.265C241.118 517.976 242.877 517.162 244.71 517.002L307.303 511.496L298.036 529.756L306.531 529.009L297.082 547.285ZM306.548 546.453L315.979 528.177L306.531 529.009L315.979 510.732L307.303 511.496L315.917 494.524L227.502 502.302C225.227 502.501 223.045 503.527 221.435 505.154C219.825 506.781 218.92 508.877 218.919 510.98L218.919 655.892C218.92 657.995 219.825 659.931 221.435 661.275C223.045 662.619 225.227 663.261 227.502 663.059L315.547 655.314L305.528 638.75L315.681 637.857L305.467 621.311L315.763 620.405L305.568 603.858L315.845 602.953L301.475 579.525C300.476 577.897 300.44 575.852 301.379 574.026L315.979 545.623L306.548 546.453ZM306.548 546.453L292.394 573.877C290.878 576.816 290.935 580.106 292.548 582.724L305.568 603.858L295.253 604.765L283.622 585.924C281.394 582.316 281.315 577.78 283.41 573.73L297.082 547.285L306.548 546.453Z" fill="#4F46B4"/>
<path fill-rule="evenodd" clip-rule="evenodd" d="M351.049 484.349C353.648 479.23 353.549 473.493 350.786 468.925L345.631 460.403L345.631 455.284C345.631 454.534 345.304 453.844 344.722 453.365C344.14 452.887 343.352 452.659 342.53 452.732L341.069 452.86L331.051 436.297L362.19 433.558C363.518 433.44 364.792 433.806 365.731 434.576C366.671 435.346 367.199 436.455 367.2 437.661L367.2 520.782C367.199 521.988 366.671 523.19 365.731 524.125C364.792 525.06 363.518 525.651 362.19 525.766L328.525 528.728L337.793 510.467L342.53 510.051C343.352 509.979 344.14 509.612 344.722 509.031C345.304 508.45 345.631 507.703 345.631 506.953L345.631 495.024L351.049 484.349ZM329.479 511.199L337.793 510.467L345.631 495.024L345.631 460.403L341.069 452.86L331.308 453.719L321.094 437.173L331.051 436.297L321.033 419.734L381.851 414.383C383.684 414.221 385.443 414.725 386.741 415.786C388.038 416.847 388.768 418.376 388.769 420.038L388.769 534.609C388.768 536.272 388.038 537.93 386.741 539.219C385.443 540.508 383.684 541.322 381.851 541.482L319.258 546.988L328.525 528.728L320.03 529.476L329.479 511.199ZM320.013 512.032L310.582 530.307L320.03 529.476L310.582 547.752L319.258 546.988L310.644 563.96L399.059 556.182C401.334 555.983 403.516 554.958 405.126 553.33C406.736 551.703 407.641 549.607 407.642 547.504L407.642 402.592C407.641 400.49 406.736 398.553 405.126 397.209C403.516 395.865 401.334 395.223 399.059 395.425L311.014 403.171L321.033 419.734L310.88 420.627L321.094 437.173L310.798 438.079L320.993 454.627L310.715 455.531L325.086 478.959C326.085 480.587 326.121 482.632 325.182 484.458L310.582 512.861L320.013 512.032ZM320.013 512.032L334.167 484.607C335.683 481.668 335.626 478.378 334.013 475.76L320.993 454.627L331.308 453.719L342.939 472.56C345.167 476.168 345.246 480.704 343.151 484.754L329.479 511.199L320.013 512.032Z" fill="#4F46B4"/>
<path fill-rule="evenodd" clip-rule="evenodd" d="M539.785 715.712C542.383 710.593 542.285 704.856 539.521 700.288L534.367 691.766L534.367 686.647C534.366 685.897 534.039 685.207 533.458 684.728C532.876 684.25 532.088 684.022 531.266 684.095L529.805 684.223L519.787 667.66L550.926 664.921C552.254 664.803 553.528 665.169 554.467 665.939C555.407 666.709 555.935 667.818 555.936 669.024L555.936 752.144C555.935 753.351 555.407 754.553 554.467 755.488C553.528 756.423 552.254 757.014 550.926 757.129L517.261 760.091L526.529 741.83L531.266 741.414C532.088 741.342 532.876 740.975 533.458 740.394C534.039 739.813 534.366 739.066 534.367 738.316L534.367 726.387L539.785 715.712ZM518.215 742.562L526.529 741.83L534.367 726.387L534.367 691.766L529.805 684.223L520.044 685.082L509.83 668.536L519.787 667.66L509.768 651.097L570.587 645.746C572.42 645.584 574.179 646.088 575.477 647.149C576.774 648.21 577.504 649.739 577.505 651.401L577.505 765.972C577.504 767.635 576.774 769.293 575.477 770.582C574.179 771.871 572.42 772.685 570.587 772.845L507.993 778.351L517.261 760.091L508.766 760.839L518.215 742.562ZM508.749 743.395L499.317 761.67L508.766 760.839L499.317 779.115L507.993 778.351L499.38 795.323L587.795 787.545C590.07 787.346 592.252 786.321 593.862 784.693C595.471 783.066 596.377 780.97 596.378 778.867L596.378 633.955C596.376 631.853 595.471 629.916 593.862 628.572C592.252 627.228 590.07 626.586 587.795 626.788L499.75 634.533L509.768 651.097L499.616 651.99L509.83 668.536L499.534 669.442L509.728 685.99L499.451 686.894L513.822 710.322C514.821 711.95 514.856 713.995 513.917 715.821L499.317 744.224L508.749 743.395ZM508.749 743.395L522.902 715.97C524.419 713.031 524.362 709.741 522.748 707.123L509.728 685.99L520.044 685.082L531.674 703.923C533.902 707.531 533.981 712.067 531.887 716.117L518.215 742.562L508.749 743.395Z" fill="#4F46B4"/>
<path fill-rule="evenodd" clip-rule="evenodd" d="M652.983 769.578C650.385 774.697 650.483 780.434 653.247 785.003L658.401 793.524L658.401 798.644C658.402 799.393 658.729 800.083 659.31 800.562C659.892 801.041 660.681 801.268 661.503 801.196L662.963 801.067L672.981 817.63L641.842 820.369C640.514 820.487 639.241 820.121 638.301 819.351C637.361 818.582 636.833 817.472 636.832 816.266L636.832 733.146C636.833 731.94 637.361 730.737 638.301 729.802C639.241 728.867 640.514 728.277 641.842 728.161L675.507 725.199L666.239 743.46L661.503 743.877C660.681 743.949 659.892 744.315 659.31 744.896C658.729 745.477 658.402 746.225 658.401 746.974L658.401 758.903L652.983 769.578ZM674.553 742.729L666.239 743.46L658.401 758.903L658.401 793.524L662.963 801.067L672.724 800.208L682.938 816.754L672.981 817.63L683 834.193L622.182 839.544C620.348 839.706 618.589 839.202 617.292 838.141C615.994 837.081 615.264 835.551 615.263 833.889L615.263 719.318C615.264 717.655 615.994 715.997 617.292 714.709C618.589 713.42 620.348 712.606 622.182 712.446L684.775 706.939L675.507 725.199L684.002 724.452L674.553 742.729ZM684.019 741.896L693.451 723.621L684.002 724.452L693.451 706.176L684.775 706.939L693.389 689.967L604.973 697.745C602.698 697.944 600.516 698.97 598.906 700.597C597.297 702.225 596.392 704.32 596.39 706.423L596.39 851.335C596.392 853.438 597.297 855.374 598.906 856.718C600.516 858.062 602.698 858.704 604.973 858.503L693.018 850.757L683 834.193L693.152 833.3L682.938 816.754L693.235 815.848L683.04 799.301L693.317 798.397L678.946 774.968C677.947 773.341 677.912 771.295 678.851 769.469L693.451 741.066L684.019 741.896ZM684.019 741.896L669.866 769.321C668.349 772.259 668.407 775.55 670.02 778.168L683.04 799.301L672.724 800.208L661.094 781.368C658.866 777.759 658.787 773.224 660.881 769.173L674.553 742.729L684.019 741.896Z" fill="#4F46B4"/>
<path fill-rule="evenodd" clip-rule="evenodd" d="M728.521 679.792C731.119 674.674 731.021 668.937 728.257 664.368L723.103 655.846L723.103 650.727C723.102 649.977 722.775 649.287 722.193 648.809C721.612 648.33 720.823 648.102 720.001 648.175L718.541 648.304L708.523 631.741L739.662 629.001C740.99 628.884 742.263 629.25 743.203 630.019C744.142 630.789 744.671 631.899 744.672 633.105L744.672 716.225C744.671 717.431 744.142 718.634 743.203 719.569C742.263 720.503 740.99 721.094 739.662 721.21L705.997 724.171L715.265 705.911L720.001 705.494C720.823 705.422 721.612 705.055 722.193 704.474C722.775 703.894 723.102 703.146 723.103 702.396L723.103 690.468L728.521 679.792ZM706.951 706.642L715.265 705.911L723.103 690.468L723.103 655.846L718.541 648.304L708.78 649.162L698.566 632.617L708.523 631.741L698.504 615.177L759.322 609.827C761.156 609.664 762.915 610.169 764.212 611.229C765.51 612.29 766.239 613.819 766.241 615.482L766.241 730.053C766.239 731.715 765.51 733.373 764.212 734.662C762.915 735.951 761.156 736.765 759.322 736.925L696.729 742.432L705.997 724.171L697.502 724.919L706.951 706.642ZM697.485 707.475L688.053 725.75L697.502 724.919L688.053 743.195L696.729 742.432L688.115 759.404L776.531 751.625C778.806 751.427 780.988 750.401 782.597 748.773C784.207 747.146 785.112 745.051 785.114 742.948L785.114 598.035C785.112 595.933 784.207 593.997 782.597 592.652C780.988 591.308 778.806 590.666 776.531 590.868L688.486 598.614L698.504 615.177L688.352 616.07L698.566 632.617L688.269 633.522L698.464 650.07L688.187 650.974L702.558 674.402C703.557 676.03 703.592 678.076 702.653 679.902L688.053 708.305L697.485 707.475ZM697.485 707.475L711.638 680.05C713.155 677.112 713.097 673.821 711.484 671.203L698.464 650.07L708.78 649.162L720.41 668.003C722.638 671.611 722.717 676.147 720.623 680.198L706.951 706.642L697.485 707.475Z" fill="#4F46B4"/>
<path fill-rule="evenodd" clip-rule="evenodd" d="M162.314 715.712C164.912 710.593 164.814 704.856 162.05 700.288L156.895 691.766L156.895 686.647C156.895 685.897 156.568 685.207 155.986 684.728C155.405 684.25 154.616 684.022 153.794 684.095L152.333 684.223L142.315 667.66L173.455 664.921C174.782 664.803 176.056 665.17 176.996 665.939C177.935 666.709 178.464 667.818 178.464 669.024L178.465 752.145C178.464 753.351 177.935 754.553 176.996 755.488C176.056 756.423 174.782 757.014 173.455 757.129L139.79 760.091L149.058 741.83L153.794 741.414C154.616 741.342 155.405 740.975 155.986 740.394C156.568 739.813 156.895 739.066 156.896 738.316L156.895 726.387L162.314 715.712ZM140.744 742.562L149.058 741.83L156.895 726.387L156.895 691.766L152.333 684.223L142.572 685.082L132.359 668.536L142.315 667.66L132.297 651.097L193.115 645.746C194.949 645.584 196.708 646.088 198.005 647.149C199.303 648.21 200.032 649.739 200.033 651.401L200.034 765.972C200.032 767.635 199.303 769.293 198.005 770.582C196.708 771.871 194.949 772.685 193.115 772.845L130.522 778.351L139.79 760.091L131.295 760.839L140.744 742.562ZM131.277 743.395L121.846 761.67L131.295 760.839L121.846 779.115L130.522 778.351L121.908 795.323L210.324 787.545C212.599 787.346 214.781 786.321 216.39 784.693C218 783.066 218.905 780.97 218.907 778.867L218.907 633.955C218.905 631.853 218 629.916 216.39 628.572C214.781 627.228 212.598 626.586 210.324 626.788L122.279 634.534L132.297 651.097L122.145 651.99L132.359 668.536L122.062 669.442L132.257 685.99L121.98 686.894L136.351 710.322C137.349 711.95 137.385 713.995 136.446 715.821L121.846 744.224L131.277 743.395ZM131.277 743.395L145.431 715.97C146.947 713.031 146.89 709.741 145.277 707.123L132.257 685.99L142.572 685.082L154.203 703.923C156.431 707.531 156.51 712.067 154.416 716.117L140.744 742.562L131.277 743.395Z" fill="#4F46B4"/>
<path fill-rule="evenodd" clip-rule="evenodd" d="M275.512 769.578C272.913 774.697 273.011 780.434 275.775 785.003L280.93 793.524L280.93 798.644C280.93 799.393 281.257 800.083 281.839 800.562C282.421 801.041 283.209 801.268 284.031 801.196L285.492 801.067L295.51 817.63L264.371 820.369C263.043 820.487 261.769 820.121 260.83 819.351C259.89 818.582 259.362 817.472 259.361 816.266L259.361 733.146C259.362 731.94 259.89 730.737 260.83 729.802C261.769 728.867 263.043 728.277 264.371 728.161L298.036 725.199L288.768 743.46L284.031 743.877C283.209 743.949 282.421 744.315 281.839 744.896C281.257 745.477 280.93 746.225 280.93 746.974L280.93 758.903L275.512 769.578ZM297.082 742.729L288.768 743.46L280.93 758.903L280.93 793.524L285.492 801.067L295.253 800.208L305.467 816.754L295.51 817.63L305.528 834.193L244.71 839.544C242.877 839.706 241.118 839.202 239.82 838.141C238.523 837.081 237.793 835.551 237.792 833.889L237.792 719.318C237.793 717.655 238.523 715.997 239.82 714.709C241.118 713.42 242.877 712.606 244.71 712.446L307.303 706.939L298.036 725.199L306.531 724.452L297.082 742.729ZM306.548 741.896L315.979 723.621L306.531 724.452L315.979 706.176L307.303 706.939L315.917 689.967L227.502 697.745C225.227 697.944 223.045 698.97 221.435 700.597C219.825 702.225 218.92 704.32 218.919 706.423L218.919 851.335C218.92 853.438 219.825 855.374 221.435 856.718C223.045 858.062 225.227 858.704 227.502 858.503L315.547 850.757L305.528 834.193L315.681 833.3L305.467 816.754L315.763 815.848L305.568 799.301L315.846 798.397L301.475 774.969C300.476 773.341 300.44 771.295 301.379 769.469L315.979 741.066L306.548 741.896ZM306.548 741.896L292.394 769.321C290.878 772.259 290.935 775.55 292.548 778.168L305.568 799.301L295.253 800.208L283.622 781.368C281.394 777.759 281.315 773.224 283.41 769.173L297.082 742.729L306.548 741.896Z" fill="#4F46B4"/>
<path fill-rule="evenodd" clip-rule="evenodd" d="M351.049 679.792C353.648 674.674 353.55 668.937 350.786 664.368L345.631 655.846L345.631 650.727C345.631 649.977 345.304 649.287 344.722 648.809C344.14 648.33 343.352 648.102 342.53 648.175L341.069 648.304L331.051 631.741L362.19 629.001C363.518 628.884 364.792 629.25 365.731 630.019C366.671 630.789 367.199 631.899 367.2 633.105L367.2 716.225C367.199 717.431 366.671 718.634 365.731 719.569C364.792 720.503 363.518 721.094 362.19 721.21L328.525 724.172L337.793 705.911L342.53 705.494C343.352 705.422 344.14 705.055 344.722 704.475C345.304 703.894 345.631 703.146 345.631 702.396L345.631 690.468L351.049 679.792ZM329.479 706.642L337.793 705.911L345.631 690.468L345.631 655.846L341.069 648.304L331.308 649.162L321.094 632.617L331.051 631.741L321.033 615.177L381.851 609.827C383.684 609.664 385.443 610.169 386.741 611.229C388.038 612.29 388.768 613.82 388.769 615.482L388.769 730.053C388.768 731.715 388.038 733.373 386.741 734.662C385.444 735.951 383.684 736.765 381.851 736.925L319.258 742.432L328.525 724.172L320.03 724.919L329.479 706.642ZM320.013 707.475L310.582 725.75L320.03 724.919L310.582 743.195L319.258 742.432L310.644 759.404L399.059 751.625C401.334 751.427 403.516 750.401 405.126 748.773C406.736 747.146 407.641 745.051 407.642 742.948L407.642 598.035C407.641 595.933 406.736 593.997 405.126 592.652C403.516 591.308 401.334 590.666 399.059 590.868L311.014 598.614L321.033 615.177L310.88 616.07L321.094 632.617L310.798 633.523L320.993 650.07L310.715 650.974L325.086 674.402C326.085 676.03 326.121 678.076 325.182 679.902L310.582 708.305L320.013 707.475ZM320.013 707.475L334.167 680.05C335.683 677.112 335.626 673.821 334.013 671.203L320.993 650.07L331.308 649.162L342.939 668.003C345.167 671.611 345.246 676.147 343.151 680.198L329.479 706.642L320.013 707.475Z" fill="#4F46B4"/>
</g>
</g>
<rect x="612.5" y="701.5" width="597" height="686" transform="rotate(180 612.5 701.5)" stroke="#F9F8F8" stroke-width="31"/>
<defs>
<filter id="filter0_d_6_5" x="5.18286" y="-161.818" width="804.931" height="1050.36" filterUnits="userSpaceOnUse" color-interpolation-filters="sRGB">
<feFlood flood-opacity="0" result="BackgroundImageFix"/>
<feColorMatrix in="SourceAlpha" type="matrix" values="0 0 0 0 0 0 0 0 0 0 0 0 0 0 0 0 0 0 127 0" result="hardAlpha"/>
<feOffset dy="5"/>
<feGaussianBlur stdDeviation="12.5"/>
<feComposite in2="hardAlpha" operator="out"/>
<feColorMatrix type="matrix" values="0 0 0 0 0 0 0 0 0 0 0 0 0 0 0 0 0 0 0.31 0"/>
<feBlend mode="normal" in2="BackgroundImageFix" result="effect1_dropShadow_6_5"/>
<feBlend mode="normal" in="SourceGraphic" in2="effect1_dropShadow_6_5" result="shape"/>
</filter>
</defs>
</svg>
