<svg xmlns="http://www.w3.org/2000/svg" xmlns:xlink="http://www.w3.org/1999/xlink" width="500" zoomAndPan="magnify" viewBox="0 0 375 374.999991" height="500" preserveAspectRatio="xMidYMid meet" version="1.0"><defs><g/><clipPath id="346dda1027"><path d="M 273 167.285156 L 364.636719 167.285156 L 364.636719 260 L 273 260 Z M 273 167.285156 " clip-rule="nonzero"/></clipPath><clipPath id="275f516c7f"><path d="M 27.136719 167.285156 L 119 167.285156 L 119 260 L 27.136719 260 Z M 27.136719 167.285156 " clip-rule="nonzero"/></clipPath><clipPath id="47a4233a8c"><path d="M 134.898438 96 L 177 96 L 177 149 L 134.898438 149 Z M 134.898438 96 " clip-rule="nonzero"/></clipPath><clipPath id="175a2b96c0"><path d="M 150 69.191406 L 202 69.191406 L 202 124 L 150 124 Z M 150 69.191406 " clip-rule="nonzero"/></clipPath><clipPath id="4b416df2bc"><path d="M 190 137 L 241 137 L 241 191.441406 L 190 191.441406 Z M 190 137 " clip-rule="nonzero"/></clipPath></defs><g clip-path="url(#346dda1027)"><path fill="#000000" d="M 273.71875 137.203125 L 273.71875 175.960938 L 357.695312 175.960938 L 357.695312 259.9375 L 396.453125 259.9375 L 396.453125 137.203125 Z M 273.71875 137.203125 " fill-opacity="1" fill-rule="nonzero"/></g><g clip-path="url(#275f516c7f)"><path fill="#000000" d="M -4.046875 259.9375 L 34.710938 259.9375 L 34.710938 175.960938 L 118.683594 175.960938 L 118.683594 137.203125 L -4.046875 137.203125 Z M -4.046875 259.9375 " fill-opacity="1" fill-rule="nonzero"/></g><g clip-path="url(#47a4233a8c)"><path fill="#000000" d="M 176.714844 148.230469 L 145.285156 96.066406 C 138.6875 105.816406 134.835938 117.5625 134.835938 130.191406 C 134.835938 136.46875 135.789062 142.527344 137.558594 148.230469 Z M 176.714844 148.230469 " fill-opacity="1" fill-rule="nonzero"/></g><path fill="#000000" d="M 189.921875 104.300781 L 251.1875 104.300781 C 243.320312 87.566406 228.074219 74.96875 209.664062 70.710938 Z M 189.921875 104.300781 " fill-opacity="1" fill-rule="nonzero"/><g clip-path="url(#175a2b96c0)"><path fill="#000000" d="M 170.253906 123.207031 L 201.863281 69.421875 C 199.902344 69.230469 197.914062 69.125 195.902344 69.125 C 177.695312 69.125 161.332031 77.144531 150.136719 89.824219 Z M 170.253906 123.207031 " fill-opacity="1" fill-rule="nonzero"/></g><path fill="#000000" d="M 182.988281 189.335938 L 202.324219 155.609375 L 140.398438 155.609375 C 148.519531 173.273438 164.820312 186.417969 184.429688 190.164062 Z M 182.988281 189.335938 " fill-opacity="1" fill-rule="nonzero"/><path fill="#000000" d="M 214.992188 111.679688 L 245.859375 165.242188 C 252.847656 155.3125 256.96875 143.230469 256.96875 130.191406 C 256.96875 123.738281 255.957031 117.523438 254.089844 111.679688 Z M 214.992188 111.679688 " fill-opacity="1" fill-rule="nonzero"/><g clip-path="url(#4b416df2bc)"><path fill="#000000" d="M 221.285156 137.382812 L 190.535156 191.007812 C 192.304688 191.164062 194.09375 191.257812 195.902344 191.257812 C 213.695312 191.257812 229.730469 183.605469 240.902344 171.421875 Z M 221.285156 137.382812 " fill-opacity="1" fill-rule="nonzero"/></g><g fill="#000000" fill-opacity="1"><g transform="translate(62.593303, 262.857749)"><g><path d="M 2.203125 0 C 2.078125 0 2.015625 -0.144531 2.015625 -0.4375 L 2.015625 -0.703125 C 2.015625 -0.816406 2.085938 -0.875 2.234375 -0.875 C 2.378906 -0.875 2.59375 -0.914062 2.875 -1 C 3.164062 -1.09375 3.382812 -1.15625 3.53125 -1.1875 C 5.03125 -1.519531 5.78125 -2.367188 5.78125 -3.734375 L 5.78125 -26.921875 C 5.78125 -28.273438 5.53125 -29.132812 5.03125 -29.5 C 4.53125 -29.875 3.628906 -30.0625 2.328125 -30.0625 L 1.34375 -30.0625 C 1.03125 -30.0625 0.875 -30.238281 0.875 -30.59375 C 0.875 -30.800781 0.972656 -30.925781 1.171875 -30.96875 L 1.3125 -30.96875 L 13.640625 -31.296875 L 15.859375 -31.296875 C 18.484375 -31.117188 20.664062 -30.171875 22.40625 -28.453125 C 24.144531 -26.742188 25.015625 -24.691406 25.015625 -22.296875 C 25.015625 -19.910156 24.160156 -17.742188 22.453125 -15.796875 C 21.703125 -14.929688 20.859375 -14.226562 19.921875 -13.6875 C 18.984375 -13.15625 18.0625 -12.882812 17.15625 -12.875 L 10.5625 -13.140625 L 10.390625 -13.140625 C 10.171875 -13.140625 10.0625 -13.035156 10.0625 -12.828125 L 10.0625 -3.796875 C 10.0625 -2.992188 10.28125 -2.398438 10.71875 -2.015625 C 11.15625 -1.640625 12.085938 -1.34375 13.515625 -1.125 C 13.703125 -1.09375 14.003906 -1.039062 14.421875 -0.96875 C 14.847656 -0.90625 15.132812 -0.875 15.28125 -0.875 C 15.425781 -0.875 15.5 -0.816406 15.5 -0.703125 L 15.5 -0.171875 C 15.5 -0.0546875 15.441406 0 15.328125 0 Z M 11.84375 -30.1875 C 11.664062 -30.1875 11.476562 -30.179688 11.28125 -30.171875 C 11.082031 -30.160156 10.828125 -30.148438 10.515625 -30.140625 C 10.210938 -30.140625 10.0625 -30.019531 10.0625 -29.78125 L 10.0625 -15.609375 L 10.109375 -14.953125 C 10.148438 -14.648438 10.285156 -14.488281 10.515625 -14.46875 L 12.765625 -14.34375 C 15.117188 -14.34375 17.015625 -15.132812 18.453125 -16.71875 C 19.898438 -18.300781 20.625 -20.285156 20.625 -22.671875 C 20.625 -25.066406 19.925781 -26.921875 18.53125 -28.234375 C 17.132812 -29.554688 15.269531 -30.21875 12.9375 -30.21875 C 12.726562 -30.21875 12.535156 -30.210938 12.359375 -30.203125 C 12.191406 -30.203125 12.019531 -30.195312 11.84375 -30.1875 Z M 11.84375 -30.1875 "/></g></g></g><g fill="#000000" fill-opacity="1"><g transform="translate(93.694455, 262.857749)"><g><path d="M 5.53125 -27.453125 C 5.53125 -29.210938 4.519531 -30.09375 2.5 -30.09375 C 2.175781 -30.09375 2.015625 -30.148438 2.015625 -30.265625 L 2.015625 -30.796875 C 2.015625 -30.910156 2.078125 -30.96875 2.203125 -30.96875 L 13.203125 -30.96875 C 13.316406 -30.96875 13.375 -30.910156 13.375 -30.796875 L 13.375 -30.265625 C 13.375 -30.148438 13.050781 -30.09375 12.40625 -30.09375 C 11.757812 -30.09375 11.164062 -29.882812 10.625 -29.46875 C 10.082031 -29.0625 9.8125 -28.222656 9.8125 -26.953125 L 9.8125 -3.515625 C 9.8125 -1.753906 10.832031 -0.875 12.875 -0.875 C 13.175781 -0.875 13.328125 -0.816406 13.328125 -0.703125 L 13.328125 -0.171875 C 13.328125 -0.0546875 13.269531 0 13.15625 0 L 2.15625 0 C 2.039062 0 1.984375 -0.0546875 1.984375 -0.171875 L 1.984375 -0.703125 C 1.984375 -0.816406 2.300781 -0.875 2.9375 -0.875 C 3.582031 -0.875 4.175781 -1.078125 4.71875 -1.484375 C 5.257812 -1.898438 5.53125 -2.742188 5.53125 -4.015625 Z M 5.53125 -27.453125 "/></g></g></g><g fill="#000000" fill-opacity="1"><g transform="translate(113.54841, 262.857749)"><g><path d="M 29.546875 -0.828125 C 29.472656 -0.710938 29.289062 -0.6875 29 -0.75 C 28.71875 -0.820312 28.382812 -0.859375 28 -0.859375 C 27.625 -0.859375 27.085938 -0.78125 26.390625 -0.625 C 25.691406 -0.46875 24.59375 -0.226562 23.09375 0.09375 C 21.601562 0.425781 20.242188 0.59375 19.015625 0.59375 C 16.234375 0.59375 13.535156 -0.0625 10.921875 -1.375 C 8.304688 -2.6875 6.21875 -4.546875 4.65625 -6.953125 C 3.09375 -9.359375 2.3125 -12.148438 2.3125 -15.328125 C 2.3125 -18.503906 3.09375 -21.382812 4.65625 -23.96875 C 6.9375 -27.738281 10.378906 -30.195312 14.984375 -31.34375 C 16.441406 -31.707031 17.90625 -31.890625 19.375 -31.890625 C 21.375 -31.890625 23.753906 -31.554688 26.515625 -30.890625 C 27.347656 -30.679688 28.050781 -30.46875 28.625 -30.25 C 29.207031 -30.03125 29.566406 -29.921875 29.703125 -29.921875 L 30.359375 -30.09375 L 31.03125 -30.09375 C 31.207031 -30.09375 31.296875 -29.96875 31.296875 -29.71875 L 31.296875 -22.890625 C 31.296875 -22.742188 31.164062 -22.671875 30.90625 -22.671875 C 30.644531 -22.671875 30.488281 -22.703125 30.4375 -22.765625 C 30.394531 -22.828125 30.351562 -22.90625 30.3125 -23 C 30.269531 -23.101562 30.222656 -23.203125 30.171875 -23.296875 C 30.117188 -23.398438 30.066406 -23.492188 30.015625 -23.578125 C 29.960938 -23.671875 29.929688 -23.738281 29.921875 -23.78125 C 27.722656 -28.195312 24.390625 -30.40625 19.921875 -30.40625 C 15.890625 -30.40625 12.738281 -29.125 10.46875 -26.5625 C 8.207031 -24 7.078125 -20.601562 7.078125 -16.375 C 7.078125 -12.144531 8.320312 -8.515625 10.8125 -5.484375 C 13.3125 -2.453125 16.707031 -0.9375 21 -0.9375 C 23.34375 -0.9375 25.476562 -1.632812 27.40625 -3.03125 C 29.332031 -4.425781 30.84375 -6.132812 31.9375 -8.15625 C 31.96875 -8.238281 32.054688 -8.28125 32.203125 -8.28125 L 32.484375 -8.28125 C 32.628906 -8.28125 32.703125 -8.191406 32.703125 -8.015625 C 32.703125 -7.835938 32.660156 -7.671875 32.578125 -7.515625 Z M 29.546875 -0.828125 "/></g></g></g><g fill="#000000" fill-opacity="1"><g transform="translate(152.447909, 262.857749)"><g><path d="M 17.921875 0.484375 C 15.609375 0.273438 13.476562 -0.320312 11.53125 -1.3125 C 9.582031 -2.300781 7.953125 -3.488281 6.640625 -4.875 C 3.828125 -7.84375 2.421875 -11.394531 2.421875 -15.53125 C 2.421875 -20.289062 4.046875 -24.195312 7.296875 -27.25 C 10.554688 -30.3125 14.617188 -31.84375 19.484375 -31.84375 C 24.347656 -31.84375 28.378906 -30.332031 31.578125 -27.3125 C 34.773438 -24.300781 36.375 -20.445312 36.375 -15.75 C 36.375 -10.15625 33.523438 -5.46875 27.828125 -1.6875 C 27.691406 -1.601562 27.128906 -1.316406 26.140625 -0.828125 C 25.160156 -0.347656 24.671875 -0.0703125 24.671875 0 C 24.671875 0.0625 25.125 0.398438 26.03125 1.015625 C 26.945312 1.640625 28.894531 3.15625 31.875 5.5625 C 33.65625 6.988281 35.035156 7.800781 36.015625 8 C 37.003906 8.195312 37.5 8.394531 37.5 8.59375 C 37.5 8.957031 37.265625 9.179688 36.796875 9.265625 C 36.328125 9.359375 35.613281 9.40625 34.65625 9.40625 C 33 9.40625 31.171875 8.863281 29.171875 7.78125 C 25.640625 5.445312 23.265625 3.703125 22.046875 2.546875 C 20.835938 1.390625 19.769531 0.738281 18.84375 0.59375 C 18.5625 0.550781 18.253906 0.515625 17.921875 0.484375 Z M 10.171875 -26.21875 C 9.140625 -24.96875 8.347656 -23.492188 7.796875 -21.796875 C 7.253906 -20.109375 6.988281 -18.46875 7 -16.875 C 7.03125 -13.988281 7.609375 -11.351562 8.734375 -8.96875 C 9.867188 -6.59375 11.445312 -4.675781 13.46875 -3.21875 C 15.5 -1.757812 17.847656 -1.03125 20.515625 -1.03125 C 23.773438 -1.03125 26.488281 -2.304688 28.65625 -4.859375 C 30.832031 -7.421875 31.921875 -10.769531 31.921875 -14.90625 C 31.921875 -19.050781 30.859375 -22.53125 28.734375 -25.34375 C 26.367188 -28.445312 23.070312 -30.125 18.84375 -30.375 C 15.300781 -30.375 12.410156 -28.988281 10.171875 -26.21875 Z M 10.171875 -26.21875 "/></g></g></g><g fill="#000000" fill-opacity="1"><g transform="translate(195.762818, 262.857749)"><g><path d="M 12.609375 -30.09375 C 10.148438 -30.09375 8.921875 -29.113281 8.921875 -27.15625 L 8.921875 -11.421875 C 8.921875 -8.523438 9.878906 -6.15625 11.796875 -4.3125 C 13.710938 -2.476562 16.171875 -1.5625 19.171875 -1.5625 C 22.296875 -1.5625 24.851562 -2.398438 26.84375 -4.078125 C 28.84375 -5.753906 29.84375 -8.078125 29.84375 -11.046875 L 29.84375 -25.015625 C 29.84375 -26.410156 29.722656 -27.378906 29.484375 -27.921875 C 28.847656 -29.367188 27.425781 -30.09375 25.21875 -30.09375 C 25.101562 -30.09375 25.046875 -30.148438 25.046875 -30.265625 L 25.046875 -30.796875 C 25.046875 -30.910156 25.101562 -30.96875 25.21875 -30.96875 L 36.015625 -30.96875 C 36.140625 -30.96875 36.203125 -30.910156 36.203125 -30.796875 L 36.203125 -30.265625 C 36.203125 -30.148438 36.039062 -30.09375 35.71875 -30.09375 C 33.800781 -30.09375 32.628906 -29.347656 32.203125 -27.859375 C 32.128906 -27.609375 32.09375 -27.375 32.09375 -27.15625 L 32.09375 -12.765625 C 32.09375 -6.335938 29.628906 -2.195312 24.703125 -0.34375 C 23.054688 0.28125 21.410156 0.59375 19.765625 0.59375 C 13.890625 0.59375 9.5625 -0.941406 6.78125 -4.015625 C 5.351562 -5.597656 4.640625 -7.554688 4.640625 -9.890625 L 4.640625 -27.453125 C 4.640625 -28.703125 3.882812 -29.523438 2.375 -29.921875 C 1.9375 -30.035156 1.5625 -30.09375 1.25 -30.09375 C 0.945312 -30.09375 0.796875 -30.148438 0.796875 -30.265625 L 0.796875 -30.796875 C 0.796875 -30.910156 0.84375 -30.96875 0.9375 -30.96875 L 12.84375 -30.96875 C 12.96875 -30.96875 13.03125 -30.910156 13.03125 -30.796875 L 13.03125 -30.265625 C 13.03125 -30.148438 12.890625 -30.09375 12.609375 -30.09375 Z M 12.609375 -30.09375 "/></g></g></g><g fill="#000000" fill-opacity="1"><g transform="translate(236.990844, 262.857749)"><g><path d="M 0.15625 -0.171875 L 0.15625 -0.796875 C 0.15625 -0.910156 0.210938 -0.96875 0.328125 -0.96875 L 0.8125 -0.96875 C 1.425781 -1.007812 2.054688 -1.03125 2.703125 -1.03125 C 3.347656 -1.039062 3.929688 -1.125 4.453125 -1.28125 C 5.660156 -1.625 6.265625 -2.5 6.265625 -3.90625 L 6.265625 -27.0625 C 6.265625 -28.507812 5.40625 -29.429688 3.6875 -29.828125 C 3.207031 -29.929688 2.71875 -30.019531 2.21875 -30.09375 L 1.75 -30.09375 C 1.632812 -30.09375 1.578125 -30.148438 1.578125 -30.265625 L 1.578125 -30.796875 C 1.578125 -30.910156 1.632812 -30.96875 1.75 -30.96875 L 22.640625 -30.96875 C 22.910156 -30.96875 23.101562 -30.921875 23.21875 -30.828125 C 23.332031 -30.734375 23.40625 -30.523438 23.4375 -30.203125 L 23.828125 -23.828125 C 23.828125 -23.679688 23.71875 -23.609375 23.5 -23.609375 C 23.28125 -23.609375 23.117188 -23.675781 23.015625 -23.8125 C 22.929688 -23.957031 22.816406 -24.488281 22.671875 -25.40625 C 22.535156 -26.332031 22.285156 -27.101562 21.921875 -27.71875 C 21.554688 -28.332031 20.910156 -28.722656 19.984375 -28.890625 L 10.828125 -28.890625 C 10.640625 -28.890625 10.546875 -28.789062 10.546875 -28.59375 L 10.546875 -17.25 C 10.546875 -17.09375 10.617188 -17.015625 10.765625 -17.015625 L 18.359375 -17.015625 C 20.328125 -17.015625 21.3125 -18.160156 21.3125 -20.453125 C 21.3125 -20.566406 21.367188 -20.625 21.484375 -20.625 L 22.015625 -20.625 C 22.128906 -20.625 22.1875 -20.566406 22.1875 -20.453125 L 22.1875 -11.046875 C 22.1875 -10.929688 22.128906 -10.875 22.015625 -10.875 L 21.484375 -10.875 C 21.367188 -10.875 21.3125 -10.929688 21.3125 -11.046875 C 21.3125 -13.210938 20.679688 -14.460938 19.421875 -14.796875 C 19.066406 -14.890625 18.691406 -14.9375 18.296875 -14.9375 L 10.765625 -14.9375 C 10.617188 -14.9375 10.546875 -14.863281 10.546875 -14.71875 L 10.546875 -4.015625 C 10.546875 -2.921875 11.050781 -2.300781 12.0625 -2.15625 C 12.351562 -2.113281 12.660156 -2.09375 12.984375 -2.09375 L 20.296875 -2.09375 C 21.804688 -2.09375 22.976562 -2.753906 23.8125 -4.078125 C 24.40625 -5.035156 24.769531 -6.128906 24.90625 -7.359375 C 24.945312 -7.765625 25.164062 -7.96875 25.5625 -7.96875 C 25.738281 -7.96875 25.828125 -7.875 25.828125 -7.6875 L 25.109375 -0.3125 C 25.015625 -0.101562 24.910156 0 24.796875 0 L 0.328125 0 C 0.210938 0 0.15625 -0.0546875 0.15625 -0.171875 Z M 0.15625 -0.171875 "/></g></g></g><g fill="#000000" fill-opacity="1"><g transform="translate(269.25625, 262.857749)"><g><path d="M 18.53125 -30.703125 C 18.6875 -30.703125 18.765625 -30.539062 18.765625 -30.21875 L 19.328125 -25.546875 C 19.390625 -25.253906 19.421875 -25.066406 19.421875 -24.984375 C 19.421875 -24.898438 19.304688 -24.859375 19.078125 -24.859375 C 18.847656 -24.859375 18.703125 -24.890625 18.640625 -24.953125 C 18.585938 -25.015625 18.53125 -25.113281 18.46875 -25.25 C 18.414062 -25.382812 18.347656 -25.539062 18.265625 -25.71875 C 18.179688 -25.894531 18.097656 -26.070312 18.015625 -26.25 C 17.703125 -26.925781 17.21875 -27.59375 16.5625 -28.25 C 14.945312 -29.800781 13.128906 -30.578125 11.109375 -30.578125 C 9.898438 -30.578125 8.753906 -30.179688 7.671875 -29.390625 C 6.585938 -28.597656 6.046875 -27.660156 6.046875 -26.578125 C 6.046875 -25.503906 6.242188 -24.570312 6.640625 -23.78125 C 7.046875 -23 7.578125 -22.269531 8.234375 -21.59375 C 8.890625 -20.914062 9.640625 -20.269531 10.484375 -19.65625 C 11.335938 -19.039062 12.207031 -18.421875 13.09375 -17.796875 C 15.414062 -16.171875 17.070312 -14.78125 18.0625 -13.625 C 19.59375 -11.832031 20.425781 -9.820312 20.5625 -7.59375 C 20.5625 -5.101562 19.601562 -3.113281 17.6875 -1.625 C 15.78125 -0.144531 13.5625 0.59375 11.03125 0.59375 C 9.40625 0.59375 8.109375 0.425781 7.140625 0.09375 C 6.179688 -0.226562 5.519531 -0.460938 5.15625 -0.609375 C 4.789062 -0.753906 4.523438 -0.828125 4.359375 -0.828125 C 4.191406 -0.828125 4.085938 -0.820312 4.046875 -0.8125 L 2.96875 -0.59375 C 2.78125 -0.59375 2.660156 -0.742188 2.609375 -1.046875 C 2.191406 -4.679688 1.984375 -6.613281 1.984375 -6.84375 C 1.984375 -7.070312 2 -7.222656 2.03125 -7.296875 C 2.070312 -7.378906 2.171875 -7.421875 2.328125 -7.421875 C 2.734375 -7.421875 3.109375 -6.835938 3.453125 -5.671875 C 4.984375 -2.367188 7.535156 -0.71875 11.109375 -0.71875 C 12.753906 -0.71875 14.15625 -1.21875 15.3125 -2.21875 C 16.476562 -3.21875 17.0625 -4.515625 17.0625 -6.109375 C 17.0625 -8.648438 15.539062 -11.019531 12.5 -13.21875 C 11.632812 -13.832031 10.390625 -14.6875 8.765625 -15.78125 C 7.140625 -16.882812 5.84375 -17.988281 4.875 -19.09375 C 3.363281 -20.789062 2.609375 -22.679688 2.609375 -24.765625 C 2.609375 -26.847656 3.4375 -28.554688 5.09375 -29.890625 C 6.757812 -31.222656 8.671875 -31.890625 10.828125 -31.890625 C 11.941406 -31.890625 13.164062 -31.695312 14.5 -31.3125 C 15.84375 -30.9375 16.78125 -30.679688 17.3125 -30.546875 Z M 18.53125 -30.703125 "/></g></g></g><g fill="#000000" fill-opacity="1"><g transform="translate(296.293476, 262.857749)"><g><path d="M 8.765625 -0.703125 C 8.765625 -0.816406 8.832031 -0.875 8.96875 -0.875 L 9.578125 -0.875 C 11.015625 -0.875 12.164062 -1.179688 13.03125 -1.796875 C 13.90625 -2.410156 14.34375 -3.128906 14.34375 -3.953125 L 14.34375 -28.265625 C 14.34375 -28.578125 14.28125 -28.75 14.15625 -28.78125 C 14.03125 -28.820312 13.878906 -28.859375 13.703125 -28.890625 L 5.265625 -28.890625 C 3.910156 -28.585938 3.019531 -27.539062 2.59375 -25.75 C 2.351562 -24.78125 2.210938 -24.160156 2.171875 -23.890625 C 2.128906 -23.617188 2.050781 -23.484375 1.9375 -23.484375 L 1.53125 -23.484375 C 1.445312 -23.484375 1.40625 -23.507812 1.40625 -23.5625 L 1.40625 -24.296875 L 2.21875 -31.140625 C 2.300781 -31.597656 2.445312 -31.828125 2.65625 -31.828125 C 2.863281 -31.828125 3.082031 -31.679688 3.3125 -31.390625 C 3.550781 -31.109375 4 -30.96875 4.65625 -30.96875 L 28.328125 -30.96875 C 28.960938 -30.96875 29.34375 -31.039062 29.46875 -31.1875 C 29.601562 -31.332031 29.726562 -31.472656 29.84375 -31.609375 C 29.96875 -31.753906 30.117188 -31.828125 30.296875 -31.828125 C 30.484375 -31.828125 30.601562 -31.753906 30.65625 -31.609375 C 30.707031 -31.460938 30.742188 -31.304688 30.765625 -31.140625 L 31.578125 -24.296875 L 31.578125 -23.5625 C 31.578125 -23.507812 31.535156 -23.484375 31.453125 -23.484375 L 31.0625 -23.484375 C 30.945312 -23.484375 30.863281 -23.59375 30.8125 -23.8125 C 30.582031 -25.269531 30.242188 -26.425781 29.796875 -27.28125 C 29.359375 -28.144531 28.664062 -28.679688 27.71875 -28.890625 L 19.265625 -28.890625 C 19.085938 -28.859375 18.9375 -28.820312 18.8125 -28.78125 C 18.6875 -28.75 18.625 -28.578125 18.625 -28.265625 L 18.625 -3.953125 C 18.625 -3.128906 19.054688 -2.410156 19.921875 -1.796875 C 20.796875 -1.179688 21.953125 -0.875 23.390625 -0.875 L 24.03125 -0.875 C 24.144531 -0.875 24.203125 -0.816406 24.203125 -0.703125 L 24.203125 -0.171875 C 24.203125 -0.0546875 24.144531 0 24.03125 0 L 8.9375 0 C 8.820312 0 8.765625 -0.0546875 8.765625 -0.171875 Z M 8.765625 -0.703125 "/></g></g></g></svg>